<svg width="353" height="361" viewBox="0 0 353 361" fill="none" xmlns="http://www.w3.org/2000/svg">
<path d="M4.49489 125.989L173.721 27.3381C174.274 27.0184 174.855 26.8839 175.418 26.9142L174.109 26.844C173.545 26.8137 172.965 26.9493 172.412 27.2679L3.18448 125.919C1.30847 127.002 0.414666 129.816 1.21642 132.214L51.6374 282.946C52.203 284.636 53.4541 285.651 54.8008 285.723L56.1112 285.793C54.7645 285.721 53.5122 284.706 52.9466 283.016L2.52805 132.285C1.72508 129.887 2.61888 127.073 4.49489 125.989Z" fill="#B3AA9C"/>
<path d="M173.72 27.3393C175.596 26.2566 177.779 27.2945 178.582 29.6925L229.002 180.424C229.804 182.822 228.91 185.636 227.034 186.719L57.8083 285.369C55.9323 286.452 53.7499 285.414 52.9481 283.016L2.52714 132.285C1.72538 129.887 2.61797 127.072 4.49519 125.989L173.72 27.3393Z" fill="#4A3348"/>
<path d="M57.8024 284.695L57.7891 289.536C57.7879 290.247 58.2578 290.958 59.1927 291.498L176.788 359.392C178.642 360.462 181.654 360.472 183.512 359.392L350.696 262.235C351.607 261.706 352.061 261.012 352.062 260.315L352.076 255.475L57.8024 284.695Z" fill="url(#paint0_linear_3017_21081)"/>
<path d="M350.671 253.509C352.524 254.58 352.55 256.325 350.708 257.395L183.524 354.551C181.666 355.631 178.653 355.622 176.8 354.551L59.2033 286.656C57.3503 285.586 57.3237 283.842 59.1815 282.761L226.366 185.605C228.208 184.534 231.22 184.544 233.074 185.614L350.671 253.509Z" fill="#FDEDF9"/>
<path opacity="0.3" d="M288.819 284.703L232.684 317.114C231.422 317.843 229.377 317.843 228.115 317.114L190.909 295.632C189.647 294.903 189.647 293.722 190.909 292.994L247.044 260.585C248.306 259.856 250.352 259.856 251.614 260.585L288.819 282.066C290.081 282.794 290.081 283.975 288.819 284.703Z" fill="#E6DDCE"/>
<path d="M190.911 293.669L247.046 261.26C248.308 260.532 250.353 260.532 251.615 261.26L288.82 282.741C289.302 283.02 289.597 283.363 289.711 283.722C289.896 283.14 289.6 282.516 288.82 282.065L251.615 260.584C250.353 259.855 248.308 259.855 247.046 260.584L190.911 292.993C190.129 293.444 189.835 294.068 190.02 294.65C190.134 294.292 190.429 293.948 190.911 293.669Z" fill="#D5CCBC"/>
<path opacity="0.3" d="M231.287 195.011L75.0041 285.241C73.7421 285.971 71.6965 285.971 70.4345 285.241L68.2473 283.978C66.9853 283.249 66.9853 282.07 68.2473 281.34L224.53 191.11C225.792 190.381 227.838 190.381 229.099 191.11L231.286 192.373C232.548 193.101 232.548 194.282 231.287 195.011Z" fill="#E6DDCE"/>
<path d="M68.2464 282.015L224.529 191.785C225.791 191.057 227.837 191.057 229.098 191.785L231.285 193.048C231.766 193.327 232.061 193.67 232.175 194.029C232.36 193.447 232.065 192.823 231.285 192.373L229.098 191.109C227.836 190.38 225.79 190.38 224.529 191.109L68.2464 281.34C67.4665 281.79 67.171 282.414 67.3563 282.996C67.4701 282.638 67.7644 282.294 68.2464 282.015Z" fill="#C1BAB9"/>
<path d="M126.883 298.884C126.865 298.797 126.865 298.714 126.883 298.625C126.865 298.538 126.865 298.455 126.883 298.367C126.815 298.048 126.965 297.716 127.39 297.47L134.957 293.101C135.693 292.678 136.884 292.678 137.619 293.101L143.983 296.776C144.408 297.022 144.558 297.354 144.49 297.673C144.508 297.761 144.508 297.844 144.49 297.931C144.508 298.019 144.508 298.102 144.49 298.189C144.557 298.51 144.408 298.841 143.983 299.087L136.416 303.456C135.681 303.88 134.489 303.88 133.754 303.456L127.39 299.782C126.965 299.537 126.816 299.205 126.883 298.884ZM112.075 295.677L118.438 299.352C119.173 299.776 120.365 299.776 121.1 299.352L128.667 294.984C129.093 294.738 129.242 294.406 129.174 294.086C129.193 293.999 129.193 293.915 129.174 293.828C129.193 293.741 129.193 293.657 129.174 293.57C129.241 293.249 129.092 292.919 128.667 292.673L122.304 288.998C121.569 288.574 120.377 288.574 119.642 288.998L112.075 293.367C111.648 293.612 111.499 293.944 111.567 294.264C111.549 294.351 111.549 294.435 111.567 294.523C111.549 294.61 111.549 294.694 111.567 294.781C111.499 295.1 111.65 295.432 112.075 295.677ZM129.625 270.547C129.199 270.793 129.05 271.125 129.117 271.444C129.099 271.532 129.099 271.615 129.117 271.704C129.099 271.791 129.099 271.874 129.117 271.961C129.051 272.281 129.2 272.613 129.625 272.859L135.988 276.533C136.723 276.957 137.915 276.957 138.65 276.533L146.217 272.165C146.643 271.919 146.792 271.587 146.725 271.268C146.743 271.18 146.743 271.097 146.725 271.01C146.743 270.922 146.743 270.839 146.725 270.75C146.791 270.431 146.642 270.099 146.217 269.853C136.855 264.447 140.017 264.546 129.625 270.547ZM234.149 247.031L241.716 242.662C242.142 242.416 242.291 242.085 242.223 241.765C242.241 241.678 242.241 241.594 242.223 241.507C242.241 241.42 242.241 241.336 242.223 241.248C242.29 240.928 242.141 240.596 241.716 240.35L235.353 236.677C234.617 236.252 233.426 236.252 232.69 236.677L225.123 241.045C224.698 241.291 224.548 241.623 224.616 241.943C224.598 242.03 224.598 242.114 224.616 242.202C224.598 242.289 224.598 242.373 224.616 242.46C224.549 242.78 224.698 243.112 225.123 243.357L231.488 247.032C232.222 247.455 233.414 247.455 234.149 247.031ZM148.633 296.403L156.2 292.034C156.625 291.789 156.776 291.457 156.708 291.137C156.726 291.05 156.726 290.966 156.708 290.878C156.726 290.791 156.726 290.707 156.708 290.62C156.776 290.3 156.625 289.968 156.2 289.722L149.837 286.048C149.102 285.624 147.91 285.624 147.175 286.048L139.608 290.418C139.182 290.663 139.033 290.995 139.101 291.315C139.083 291.402 139.083 291.486 139.101 291.573C139.083 291.66 139.083 291.744 139.101 291.831C139.034 292.151 139.183 292.483 139.608 292.728L145.971 296.403C146.706 296.828 147.898 296.828 148.633 296.403ZM124.975 273.231L117.408 277.6C116.982 277.846 116.833 278.178 116.901 278.498C116.883 278.585 116.883 278.669 116.901 278.756C116.883 278.843 116.883 278.927 116.901 279.014C116.834 279.334 116.983 279.667 117.408 279.911L123.772 283.586C124.507 284.01 125.699 284.01 126.434 283.586L134.001 279.217C134.427 278.971 134.576 278.64 134.508 278.32C134.526 278.233 134.526 278.149 134.508 278.061C134.526 277.973 134.526 277.89 134.508 277.803C134.575 277.483 134.426 277.151 134.001 276.905L127.638 273.231C126.902 272.807 125.711 272.807 124.975 273.231ZM209.716 261.137L217.283 256.768C217.709 256.522 217.858 256.19 217.79 255.871C217.808 255.783 217.808 255.7 217.79 255.613C217.808 255.525 217.808 255.442 217.79 255.355C217.858 255.034 217.708 254.702 217.283 254.457L210.92 250.783C210.184 250.359 208.993 250.359 208.258 250.783L200.691 255.151C200.265 255.397 200.115 255.729 200.183 256.049C200.165 256.136 200.165 256.219 200.183 256.307C200.165 256.394 200.165 256.477 200.183 256.566C200.116 256.886 200.265 257.217 200.691 257.463L207.054 261.138C207.788 261.56 208.981 261.56 209.716 261.137ZM149.408 259.125L141.841 263.493C141.416 263.739 141.266 264.071 141.334 264.391C141.316 264.478 141.316 264.562 141.334 264.649C141.316 264.736 141.316 264.82 141.334 264.908C141.267 265.228 141.416 265.56 141.841 265.805L148.205 269.48C148.94 269.904 150.131 269.904 150.867 269.48L158.434 265.111C158.86 264.866 159.009 264.534 158.941 264.214C158.959 264.127 158.959 264.043 158.941 263.956C158.959 263.869 158.959 263.785 158.941 263.698C159.009 263.378 158.859 263.045 158.434 262.801L152.07 259.126C151.335 258.7 150.144 258.7 149.408 259.125ZM197.499 268.19L205.066 263.822C205.493 263.576 205.642 263.244 205.574 262.924C205.592 262.837 205.592 262.753 205.574 262.666C205.592 262.579 205.592 262.495 205.574 262.407C205.64 262.087 205.491 261.755 205.066 261.51L198.703 257.836C197.968 257.411 196.776 257.411 196.041 257.836L188.474 262.205C188.049 262.451 187.899 262.782 187.967 263.102C187.948 263.189 187.948 263.273 187.967 263.361C187.948 263.449 187.948 263.532 187.967 263.619C187.9 263.939 188.049 264.272 188.474 264.517L194.837 268.191C195.572 268.614 196.764 268.614 197.499 268.19ZM160.85 289.349L168.417 284.981C168.843 284.735 168.992 284.403 168.924 284.084C168.942 283.996 168.942 283.913 168.924 283.824C168.942 283.737 168.942 283.654 168.924 283.566C168.991 283.247 168.842 282.915 168.417 282.669L162.054 278.994C161.319 278.57 160.127 278.57 159.392 278.994L151.825 283.363C151.398 283.609 151.249 283.941 151.317 284.26C151.299 284.348 151.299 284.431 151.317 284.518C151.299 284.605 151.299 284.689 151.317 284.776C151.251 285.097 151.4 285.429 151.825 285.674L158.188 289.348C158.923 289.774 160.115 289.775 160.85 289.349ZM221.932 254.084L229.499 249.715C229.924 249.469 230.074 249.137 230.007 248.817C230.025 248.73 230.025 248.646 230.007 248.558C230.025 248.471 230.025 248.387 230.007 248.3C230.074 247.98 229.924 247.648 229.499 247.403L223.135 243.728C222.4 243.304 221.208 243.304 220.473 243.728L212.906 248.097C212.481 248.342 212.331 248.674 212.398 248.994C212.38 249.081 212.38 249.165 212.398 249.253C212.38 249.34 212.38 249.424 212.398 249.511C212.331 249.831 212.481 250.163 212.906 250.409L219.269 254.083C220.005 254.508 221.197 254.508 221.932 254.084ZM173.066 282.296L180.633 277.927C181.058 277.682 181.209 277.35 181.141 277.03C181.159 276.943 181.159 276.859 181.141 276.772C181.159 276.685 181.159 276.601 181.141 276.514C181.207 276.194 181.058 275.861 180.633 275.617L174.269 271.942C173.534 271.518 172.342 271.518 171.607 271.942L164.04 276.311C163.615 276.556 163.465 276.888 163.532 277.208C163.514 277.295 163.514 277.379 163.532 277.466C163.514 277.553 163.514 277.637 163.532 277.724C163.466 278.045 163.615 278.377 164.04 278.621L170.403 282.296C171.139 282.721 172.331 282.721 173.066 282.296ZM185.283 275.244L192.85 270.875C193.276 270.629 193.425 270.297 193.357 269.978C193.375 269.89 193.375 269.807 193.357 269.718C193.375 269.631 193.375 269.548 193.357 269.461C193.424 269.141 193.275 268.809 192.85 268.563L186.487 264.889C185.751 264.465 184.56 264.465 183.825 264.889L176.258 269.258C175.832 269.504 175.683 269.836 175.75 270.156C175.732 270.243 175.732 270.326 175.75 270.415C175.732 270.502 175.732 270.586 175.75 270.673C175.683 270.993 175.832 271.324 176.258 271.57L182.621 275.245C183.356 275.667 184.548 275.667 185.283 275.244ZM112.759 280.284L105.192 284.653C104.767 284.899 104.617 285.23 104.685 285.55C104.666 285.637 104.666 285.721 104.685 285.809C104.666 285.897 104.666 285.98 104.685 286.067C104.618 286.388 104.767 286.72 105.192 286.965L111.555 290.639C112.29 291.063 113.482 291.063 114.217 290.639L121.784 286.27C122.209 286.024 122.359 285.692 122.292 285.372C122.31 285.285 122.31 285.201 122.292 285.114C122.31 285.027 122.31 284.943 122.292 284.856C122.359 284.536 122.209 284.205 121.784 283.959L115.42 280.284C114.686 279.86 113.494 279.86 112.759 280.284ZM157.749 278.191L165.316 273.822C165.743 273.576 165.892 273.244 165.824 272.924C165.842 272.837 165.842 272.752 165.824 272.665C165.842 272.578 165.842 272.494 165.824 272.407C165.89 272.086 165.741 271.756 165.316 271.51L158.953 267.835C158.218 267.411 157.026 267.411 156.291 267.835L148.724 272.204C148.299 272.45 148.149 272.781 148.217 273.101C148.199 273.188 148.199 273.272 148.217 273.359C148.199 273.446 148.199 273.53 148.217 273.618C148.15 273.938 148.299 274.27 148.724 274.516L155.089 278.19C155.822 278.615 157.014 278.615 157.749 278.191ZM194.4 257.031L201.967 252.662C202.392 252.417 202.542 252.085 202.474 251.765C202.493 251.678 202.493 251.594 202.474 251.507C202.493 251.42 202.493 251.336 202.474 251.248C202.542 250.928 202.392 250.596 201.967 250.35L195.603 246.676C194.867 246.252 193.676 246.252 192.941 246.676L185.374 251.044C184.948 251.29 184.798 251.622 184.866 251.942C184.848 252.029 184.848 252.113 184.866 252.2C184.848 252.287 184.848 252.371 184.866 252.458C184.8 252.779 184.948 253.111 185.374 253.355L191.738 257.03C192.472 257.456 193.664 257.456 194.4 257.031ZM182.182 264.084L189.749 259.716C190.174 259.47 190.325 259.138 190.257 258.818C190.275 258.731 190.275 258.648 190.257 258.561C190.275 258.473 190.275 258.39 190.257 258.301C190.323 257.982 190.174 257.65 189.749 257.404L183.385 253.729C182.65 253.306 181.458 253.306 180.723 253.729L173.156 258.099C172.731 258.345 172.581 258.677 172.648 258.997C172.63 259.084 172.63 259.167 172.648 259.255C172.63 259.342 172.63 259.425 172.648 259.514C172.582 259.833 172.731 260.165 173.156 260.411L179.52 264.086C180.255 264.508 181.447 264.508 182.182 264.084ZM169.966 271.138L177.533 266.769C177.958 266.524 178.108 266.192 178.04 265.872C178.058 265.785 178.058 265.701 178.04 265.613C178.058 265.526 178.058 265.442 178.04 265.355C178.107 265.035 177.958 264.703 177.533 264.457L171.168 260.783C170.433 260.359 169.242 260.359 168.506 260.783L160.939 265.151C160.513 265.397 160.364 265.729 160.432 266.049C160.414 266.136 160.414 266.22 160.432 266.308C160.414 266.395 160.414 266.479 160.432 266.566C160.365 266.886 160.514 267.218 160.939 267.463L167.303 271.138C168.039 271.562 169.231 271.562 169.966 271.138ZM261.356 220.833C261.338 220.92 261.338 221.004 261.356 221.092C261.338 221.18 261.338 221.263 261.356 221.35C261.288 221.67 261.439 222.003 261.864 222.248L268.227 225.922C268.962 226.346 270.154 226.346 270.889 225.922L278.456 221.554C278.881 221.308 279.031 220.976 278.963 220.656C278.982 220.569 278.982 220.486 278.963 220.398C278.982 220.311 278.982 220.228 278.963 220.139C279.031 219.82 278.881 219.488 278.456 219.242L272.093 215.567C271.358 215.143 270.166 215.143 269.431 215.567L261.864 219.936C261.439 220.182 261.29 220.513 261.356 220.833ZM145.533 285.244L153.1 280.875C153.526 280.629 153.675 280.298 153.607 279.978C153.626 279.891 153.626 279.807 153.607 279.72C153.626 279.633 153.626 279.549 153.607 279.462C153.675 279.141 153.525 278.809 153.1 278.564L146.737 274.89C146.002 274.466 144.81 274.466 144.075 274.89L136.508 279.258C136.083 279.504 135.932 279.836 136 280.156C135.982 280.243 135.982 280.327 136 280.414C135.982 280.501 135.982 280.585 136 280.673C135.932 280.993 136.083 281.325 136.508 281.57L142.871 285.245C143.607 285.669 144.799 285.669 145.533 285.244ZM134.52 281.942C133.785 281.517 132.593 281.517 131.858 281.942L124.291 286.311C123.866 286.557 123.716 286.888 123.784 287.208C123.766 287.295 123.766 287.379 123.784 287.467C123.766 287.555 123.766 287.638 123.784 287.725C123.717 288.045 123.866 288.377 124.291 288.623L130.654 292.297C131.39 292.721 132.581 292.721 133.316 292.297L140.883 287.928C141.31 287.682 141.459 287.35 141.391 287.03C141.409 286.943 141.409 286.859 141.391 286.772C141.409 286.685 141.409 286.601 141.391 286.513C141.459 286.193 141.309 285.86 140.883 285.616L134.52 281.942ZM173.841 245.018L166.274 249.386C165.848 249.632 165.699 249.964 165.767 250.284C165.749 250.371 165.749 250.455 165.767 250.543C165.749 250.63 165.749 250.714 165.767 250.801C165.7 251.122 165.849 251.453 166.274 251.698L172.638 255.373C173.373 255.797 174.564 255.797 175.3 255.373L182.867 251.003C183.293 250.757 183.442 250.425 183.374 250.106C183.392 250.019 183.392 249.935 183.374 249.848C183.392 249.761 183.392 249.677 183.374 249.589C183.441 249.269 183.292 248.937 182.867 248.691L176.503 245.018C175.767 244.594 174.577 244.594 173.841 245.018ZM186.058 237.964L178.491 242.333C178.066 242.579 177.916 242.911 177.982 243.23C177.964 243.317 177.964 243.401 177.982 243.488C177.964 243.575 177.964 243.659 177.982 243.747C177.916 244.067 178.065 244.399 178.491 244.645L184.854 248.318C185.589 248.742 186.781 248.742 187.516 248.318L195.083 243.95C195.509 243.704 195.658 243.372 195.591 243.052C195.609 242.965 195.609 242.881 195.591 242.793C195.609 242.706 195.609 242.622 195.591 242.535C195.658 242.214 195.508 241.882 195.083 241.638L188.72 237.963C187.985 237.54 186.793 237.54 186.058 237.964ZM206.615 249.977L214.182 245.609C214.609 245.363 214.758 245.031 214.69 244.711C214.708 244.624 214.708 244.541 214.69 244.452C214.708 244.365 214.708 244.282 214.69 244.194C214.756 243.875 214.607 243.543 214.182 243.297L207.819 239.622C207.084 239.198 205.892 239.198 205.157 239.622L197.59 243.992C197.164 244.238 197.015 244.57 197.083 244.889C197.064 244.977 197.064 245.06 197.083 245.147C197.064 245.235 197.064 245.318 197.083 245.407C197.015 245.726 197.165 246.059 197.59 246.304L203.953 249.977C204.69 250.402 205.88 250.402 206.615 249.977ZM198.274 230.911L190.707 235.279C190.282 235.525 190.132 235.857 190.2 236.177C190.182 236.264 190.182 236.348 190.2 236.435C190.182 236.522 190.182 236.605 190.2 236.694C190.132 237.014 190.282 237.346 190.707 237.591L197.072 241.266C197.807 241.69 198.999 241.69 199.734 241.266L207.301 236.896C207.726 236.65 207.876 236.318 207.808 235.999C207.826 235.912 207.826 235.827 207.808 235.74C207.826 235.652 207.826 235.569 207.808 235.482C207.875 235.162 207.726 234.83 207.301 234.584L200.936 230.91C200.201 230.487 199.009 230.487 198.274 230.911ZM161.625 252.071L154.058 256.44C153.633 256.686 153.483 257.018 153.55 257.337C153.532 257.425 153.532 257.508 153.55 257.596C153.532 257.684 153.532 257.767 153.55 257.854C153.483 258.174 153.633 258.507 154.058 258.752C160.304 262.359 161.386 263.405 163.083 262.426L170.65 258.058C171.075 257.812 171.225 257.48 171.158 257.16C171.176 257.073 171.176 256.99 171.158 256.901C171.176 256.814 171.176 256.731 171.158 256.643C171.224 256.322 171.075 255.992 170.65 255.746L164.287 252.071C163.552 251.646 162.36 251.646 161.625 252.071ZM218.832 242.925L230.337 236.282C230.764 236.036 230.913 235.704 230.845 235.385C230.863 235.297 230.863 235.214 230.845 235.127C230.863 235.04 230.863 234.956 230.845 234.869C230.911 234.549 230.762 234.216 230.337 233.971L223.974 230.297C223.239 229.873 222.047 229.873 221.312 230.297L209.807 236.94C209.38 237.186 209.231 237.517 209.299 237.837C209.281 237.924 209.281 238.008 209.299 238.095C209.281 238.182 209.281 238.266 209.299 238.353C209.231 238.674 209.381 239.005 209.807 239.251L216.17 242.925C216.905 243.349 218.097 243.349 218.832 242.925ZM219.516 227.532L213.153 223.857C212.418 223.432 211.226 223.432 210.491 223.857L202.924 228.226C202.499 228.472 202.349 228.804 202.416 229.123C202.398 229.21 202.398 229.294 202.416 229.381C202.398 229.468 202.398 229.552 202.416 229.639C202.35 229.959 202.499 230.292 202.924 230.537L209.288 234.211C210.023 234.635 211.215 234.635 211.95 234.211L219.517 229.843C219.944 229.597 220.093 229.265 220.025 228.945C220.043 228.858 220.043 228.774 220.025 228.686C220.043 228.599 220.043 228.515 220.025 228.428C220.091 228.11 219.942 227.778 219.516 227.532ZM175.39 233.487L181.754 237.161C182.489 237.585 183.68 237.585 184.416 237.161L191.983 232.793C192.408 232.547 192.558 232.215 192.49 231.896C192.508 231.808 192.508 231.725 192.49 231.636C192.508 231.549 192.508 231.466 192.49 231.378C192.558 231.059 192.408 230.727 191.983 230.481L185.619 226.806C184.884 226.383 183.693 226.383 182.957 226.806L175.39 231.175C174.964 231.421 174.815 231.753 174.883 232.072C174.865 232.16 174.865 232.243 174.883 232.331C174.865 232.419 174.865 232.502 174.883 232.589C174.816 232.909 174.965 233.241 175.39 233.487ZM138.604 312.513L132.241 308.839C131.506 308.415 130.314 308.415 129.579 308.839L122.012 313.207C121.586 313.453 121.437 313.785 121.504 314.105C121.486 314.192 121.486 314.275 121.504 314.364C121.486 314.451 121.486 314.534 121.504 314.622C121.438 314.941 121.587 315.273 122.012 315.519L128.375 319.194C129.11 319.617 130.302 319.617 131.037 319.194L138.604 314.824C139.03 314.578 139.179 314.246 139.112 313.926C139.13 313.839 139.13 313.756 139.112 313.667C139.13 313.58 139.13 313.497 139.112 313.409C139.179 313.091 139.03 312.759 138.604 312.513ZM150.822 305.461L144.457 301.786C143.722 301.362 142.531 301.362 141.795 301.786L134.228 306.155C133.803 306.401 133.653 306.732 133.721 307.052C133.703 307.139 133.703 307.223 133.721 307.31C133.703 307.397 133.703 307.481 133.721 307.568C133.654 307.888 133.803 308.221 134.228 308.466L140.592 312.14C141.327 312.565 142.518 312.565 143.254 312.14L150.821 307.772C151.246 307.526 151.396 307.194 151.328 306.874C151.346 306.787 151.346 306.703 151.328 306.616C151.346 306.529 151.346 306.445 151.328 306.358C151.396 306.037 151.247 305.707 150.822 305.461ZM132.275 305.243C132.293 305.156 132.293 305.072 132.275 304.985C132.293 304.898 132.293 304.814 132.275 304.727C132.341 304.406 132.192 304.075 131.767 303.829L125.403 300.155C124.668 299.731 123.476 299.731 122.741 300.155L111.235 306.798C110.81 307.044 110.66 307.376 110.728 307.695C110.71 307.782 110.71 307.866 110.728 307.953C110.71 308.04 110.71 308.124 110.728 308.212C110.661 308.532 110.81 308.864 111.235 309.11L117.6 312.783C118.335 313.208 119.527 313.208 120.262 312.783L131.767 306.14C132.192 305.896 132.343 305.564 132.275 305.243ZM163.037 298.407L156.674 294.733C155.939 294.309 154.747 294.309 154.012 294.733L146.445 299.101C146.019 299.347 145.87 299.679 145.937 299.999C145.919 300.086 145.919 300.169 145.937 300.258C145.919 300.345 145.919 300.429 145.937 300.516C145.87 300.836 146.02 301.167 146.445 301.413L152.808 305.088C153.543 305.512 154.735 305.512 155.47 305.088L163.037 300.719C163.463 300.473 163.612 300.142 163.545 299.822C163.563 299.735 163.563 299.651 163.545 299.564C163.563 299.477 163.563 299.393 163.545 299.306C163.612 298.985 163.463 298.653 163.037 298.407ZM94.7595 288.32C94.7776 288.233 94.7776 288.149 94.7595 288.062C94.7776 287.975 94.7776 287.891 94.7595 287.804C94.8273 287.483 94.6771 287.151 94.252 286.907L87.8888 283.232C87.1537 282.808 85.962 282.808 85.2268 283.232L77.6598 287.601C77.2347 287.846 77.0845 288.178 77.1523 288.498C77.1342 288.585 77.1342 288.669 77.1523 288.756C77.1342 288.843 77.1342 288.927 77.1523 289.015C77.0845 289.335 77.2347 289.667 77.6598 289.913L84.023 293.587C84.7581 294.011 85.9498 294.011 86.685 293.587L94.252 289.219C94.6771 288.973 94.8261 288.641 94.7595 288.32ZM116.959 301.137C116.977 301.05 116.977 300.966 116.959 300.879C116.977 300.792 116.977 300.708 116.959 300.621C117.026 300.301 116.877 299.968 116.452 299.724L110.089 296.049C109.353 295.624 108.162 295.624 107.426 296.049L99.8595 300.418C99.4344 300.664 99.2842 300.995 99.352 301.315C99.3338 301.402 99.3338 301.486 99.352 301.573C99.3338 301.66 99.3338 301.744 99.352 301.831C99.2854 302.152 99.4344 302.484 99.8595 302.729L106.223 306.403C106.958 306.827 108.15 306.827 108.885 306.403L116.452 302.035C116.877 301.79 117.026 301.458 116.959 301.137ZM110.075 292.427C110.093 292.34 110.093 292.256 110.075 292.168C110.093 292.08 110.093 291.997 110.075 291.91C110.143 291.589 109.993 291.257 109.568 291.012L103.205 287.338C102.469 286.914 101.278 286.914 100.543 287.338L89.037 293.981C88.6119 294.227 88.4617 294.558 88.5295 294.878C88.5114 294.965 88.5114 295.049 88.5295 295.136C88.5114 295.223 88.5114 295.307 88.5295 295.395C88.4617 295.715 88.6119 296.048 89.037 296.293L95.4001 299.966C96.1353 300.391 97.327 300.391 98.0622 299.966L109.568 293.323C109.994 293.078 110.143 292.747 110.075 292.427ZM289.625 225.69L283.262 222.015C282.527 221.591 281.335 221.591 280.6 222.015L273.033 226.385C272.606 226.631 272.457 226.963 272.525 227.282C272.507 227.37 272.507 227.453 272.525 227.54C272.507 227.628 272.507 227.711 272.525 227.8C272.457 228.119 272.606 228.451 273.033 228.697L279.396 232.37C280.131 232.795 281.323 232.795 282.058 232.37L289.625 228.002C290.05 227.756 290.2 227.424 290.132 227.104C290.15 227.017 290.15 226.934 290.132 226.845C290.15 226.758 290.15 226.674 290.132 226.587C290.2 226.266 290.051 225.936 289.625 225.69ZM265.192 239.796L258.829 236.121C258.094 235.697 256.902 235.697 256.167 236.121L248.6 240.491C248.173 240.737 248.024 241.068 248.092 241.388C248.074 241.475 248.074 241.559 248.092 241.646C248.074 241.733 248.074 241.817 248.092 241.904C248.026 242.224 248.175 242.556 248.6 242.802L254.963 246.476C255.698 246.9 256.89 246.9 257.625 246.476L265.192 242.108C265.617 241.862 265.767 241.53 265.699 241.21C265.718 241.123 265.718 241.039 265.699 240.951C265.718 240.864 265.718 240.78 265.699 240.693C265.767 240.373 265.617 240.041 265.192 239.796ZM277.408 232.742L271.045 229.068C270.31 228.642 269.118 228.642 268.383 229.068L260.816 233.436C260.39 233.682 260.241 234.014 260.309 234.333C260.29 234.421 260.29 234.504 260.309 234.591C260.29 234.679 260.29 234.762 260.309 234.849C260.241 235.17 260.391 235.502 260.816 235.747L267.179 239.421C267.914 239.845 269.106 239.845 269.841 239.421L277.408 235.053C277.835 234.807 277.984 234.475 277.916 234.155C277.934 234.068 277.934 233.985 277.916 233.897C277.934 233.81 277.934 233.727 277.916 233.638C277.984 233.32 277.835 232.988 277.408 232.742ZM175.254 291.354L168.89 287.68C168.155 287.255 166.964 287.255 166.228 287.68L158.661 292.049C158.236 292.295 158.086 292.627 158.154 292.946C158.136 293.034 158.136 293.117 158.154 293.206C158.136 293.293 158.136 293.376 158.154 293.464C158.086 293.783 158.236 294.115 158.661 294.361L165.025 298.035C165.76 298.459 166.951 298.459 167.687 298.035L175.254 293.666C175.68 293.42 175.829 293.088 175.761 292.768C175.779 292.681 175.779 292.598 175.761 292.51C175.779 292.423 175.779 292.34 175.761 292.252C175.829 291.931 175.68 291.6 175.254 291.354ZM89.8763 282.86L96.2395 286.535C96.9746 286.959 98.1663 286.959 98.9015 286.535L106.468 282.166C106.895 281.92 107.044 281.589 106.976 281.269C106.994 281.182 106.994 281.098 106.976 281.01C106.994 280.922 106.994 280.839 106.976 280.752C107.043 280.431 106.894 280.099 106.468 279.854L100.105 276.18C99.3702 275.756 98.1784 275.756 97.4433 276.18L89.8763 280.548C89.45 280.794 89.301 281.126 89.3688 281.446C89.3507 281.533 89.3507 281.616 89.3688 281.704C89.3507 281.791 89.3507 281.874 89.3688 281.963C89.301 282.283 89.45 282.614 89.8763 282.86ZM236.537 256.098L230.174 252.424C229.439 251.999 228.247 251.999 227.512 252.424L170.934 285.09C170.507 285.336 170.358 285.668 170.426 285.987C170.408 286.075 170.408 286.158 170.426 286.247C170.408 286.334 170.408 286.417 170.426 286.505C170.359 286.824 170.508 287.156 170.934 287.402L177.297 291.076C178.032 291.5 179.224 291.5 179.959 291.076L236.537 258.41C236.963 258.164 237.112 257.833 237.044 257.513C237.063 257.426 237.063 257.342 237.044 257.255C237.063 257.168 237.063 257.084 237.044 256.997C237.112 256.676 236.963 256.344 236.537 256.098ZM252.418 246.803L246.055 243.129C245.32 242.703 244.128 242.703 243.393 243.129L231.888 249.771C231.461 250.017 231.312 250.349 231.38 250.669C231.362 250.756 231.362 250.84 231.38 250.928C231.362 251.015 231.362 251.099 231.38 251.186C231.312 251.506 231.462 251.838 231.888 252.083L238.251 255.758C238.986 256.182 240.178 256.182 240.913 255.758L252.418 249.115C252.845 248.869 252.994 248.537 252.926 248.218C252.944 248.13 252.944 248.047 252.926 247.96C252.944 247.872 252.944 247.789 252.926 247.7C252.994 247.38 252.845 247.048 252.418 246.803ZM246.457 240.029L254.024 235.661C254.451 235.415 254.599 235.083 254.532 234.763C254.55 234.676 254.55 234.593 254.532 234.505C254.55 234.418 254.55 234.335 254.532 234.247C254.599 233.928 254.449 233.595 254.024 233.35L247.661 229.676C246.926 229.25 245.734 229.25 244.999 229.676L237.432 234.044C237.007 234.29 236.857 234.622 236.925 234.941C236.906 235.029 236.906 235.112 236.925 235.199C236.906 235.287 236.906 235.371 236.925 235.457C236.858 235.778 237.007 236.11 237.432 236.355L243.795 240.029C244.53 240.453 245.722 240.453 246.457 240.029ZM228.424 202.941L234.787 206.616C235.522 207.04 236.714 207.04 237.449 206.616L245.016 202.247C245.442 202.002 245.591 201.67 245.523 201.35C245.542 201.263 245.542 201.179 245.523 201.092C245.542 201.005 245.542 200.921 245.523 200.834C245.59 200.514 245.441 200.183 245.016 199.937L238.653 196.262C237.918 195.837 236.726 195.837 235.991 196.262L228.424 200.631C227.997 200.877 227.85 201.208 227.916 201.528C227.898 201.615 227.898 201.699 227.916 201.786C227.898 201.873 227.898 201.957 227.916 202.044C227.85 202.364 227.999 202.696 228.424 202.941ZM216.207 209.995L222.57 213.669C223.306 214.093 224.497 214.093 225.232 213.669L232.799 209.301C233.225 209.055 233.375 208.723 233.307 208.404C233.325 208.316 233.325 208.233 233.307 208.144C233.325 208.057 233.325 207.974 233.307 207.886C233.375 207.567 233.225 207.235 232.799 206.989L226.436 203.314C225.701 202.891 224.509 202.891 223.774 203.314L216.207 207.683C215.782 207.929 215.632 208.261 215.7 208.58C215.682 208.668 215.682 208.751 215.7 208.84C215.682 208.927 215.682 209.01 215.7 209.098C215.633 209.417 215.782 209.749 216.207 209.995ZM187.607 226.433L193.97 230.108C194.705 230.532 195.897 230.532 196.632 230.108L208.138 223.465C208.564 223.219 208.713 222.887 208.645 222.568C208.663 222.48 208.663 222.397 208.645 222.31C208.663 222.222 208.663 222.139 208.645 222.052C208.713 221.732 208.563 221.399 208.138 221.154L201.774 217.48C201.039 217.056 199.848 217.056 199.112 217.48L187.607 224.123C187.181 224.368 187.032 224.7 187.099 225.02C187.081 225.107 187.081 225.191 187.099 225.279C187.081 225.366 187.081 225.45 187.099 225.537C187.032 225.856 187.182 226.188 187.607 226.433ZM203.991 217.048L210.355 220.722C211.09 221.147 212.282 221.147 213.017 220.722L220.584 216.353C221.009 216.107 221.16 215.776 221.092 215.456C221.11 215.369 221.11 215.285 221.092 215.197C221.11 215.109 221.11 215.026 221.092 214.939C221.158 214.619 221.009 214.287 220.584 214.041L214.22 210.367C213.485 209.943 212.293 209.943 211.558 210.367L203.991 214.735C203.566 214.981 203.416 215.313 203.483 215.633C203.465 215.72 203.465 215.803 203.483 215.891C203.465 215.978 203.465 216.063 203.483 216.15C203.416 216.471 203.566 216.803 203.991 217.048ZM239.057 207.959C239.039 208.046 239.039 208.13 239.057 208.217C239.039 208.304 239.039 208.388 239.057 208.476C238.991 208.796 239.14 209.128 239.565 209.374L245.928 213.048C246.663 213.472 247.855 213.472 248.59 213.048L256.157 208.68C256.583 208.434 256.732 208.102 256.664 207.782C256.683 207.695 256.683 207.612 256.664 207.524C256.683 207.437 256.683 207.354 256.664 207.266C256.732 206.945 256.582 206.615 256.157 206.369L249.794 202.694C249.059 202.271 247.867 202.271 247.132 202.694L239.565 207.063C239.14 207.308 238.989 207.638 239.057 207.959ZM258.674 232.976L266.241 228.606C266.666 228.36 266.816 228.028 266.748 227.709C266.766 227.621 266.766 227.538 266.748 227.451C266.766 227.364 266.766 227.28 266.748 227.193C266.815 226.873 266.666 226.541 266.241 226.295L259.876 222.621C259.141 222.197 257.949 222.197 257.214 222.621L249.647 226.989C249.222 227.235 249.072 227.567 249.14 227.887C249.122 227.974 249.122 228.057 249.14 228.145C249.122 228.232 249.122 228.315 249.14 228.404C249.072 228.724 249.222 229.055 249.647 229.301L256.012 232.976C256.747 233.4 257.939 233.4 258.674 232.976ZM114.308 268.753L120.671 272.427C121.406 272.85 122.598 272.85 123.333 272.427L130.9 268.058C131.325 267.812 131.476 267.48 131.408 267.161C131.426 267.073 131.426 266.99 131.408 266.901C131.426 266.814 131.426 266.731 131.408 266.643C131.474 266.324 131.325 265.992 130.9 265.746L124.536 262.072C123.801 261.648 122.609 261.648 121.874 262.072L114.307 266.44C113.882 266.686 113.732 267.018 113.799 267.337C113.781 267.425 113.781 267.508 113.799 267.595C113.781 267.683 113.781 267.766 113.799 267.855C113.734 268.176 113.883 268.507 114.308 268.753ZM126.524 261.7C135.695 266.995 132.524 267.121 143.117 261.005C143.543 260.759 143.692 260.427 143.624 260.107C143.642 260.02 143.642 259.936 143.624 259.849C143.642 259.762 143.642 259.678 143.624 259.59C143.692 259.27 143.543 258.938 143.117 258.693L136.754 255.018C136.018 254.594 134.827 254.594 134.092 255.018L126.524 259.386C126.099 259.632 125.949 259.964 126.017 260.284C125.999 260.371 125.999 260.455 126.017 260.542C125.999 260.629 125.999 260.713 126.017 260.801C125.95 261.122 126.099 261.454 126.524 261.7ZM102.093 275.807L108.456 279.481C109.191 279.905 110.383 279.905 111.118 279.481L118.685 275.112C119.111 274.866 119.26 274.534 119.192 274.214C119.211 274.127 119.211 274.043 119.192 273.956C119.211 273.869 119.211 273.785 119.192 273.697C119.259 273.377 119.11 273.045 118.685 272.8L112.322 269.125C111.587 268.701 110.395 268.701 109.66 269.125L102.093 273.495C101.668 273.741 101.517 274.072 101.585 274.392C101.567 274.479 101.567 274.563 101.585 274.651C101.567 274.739 101.567 274.822 101.585 274.909C101.517 275.229 101.666 275.561 102.093 275.807ZM138.741 254.647L145.104 258.321C145.839 258.746 147.031 258.746 147.766 258.321L155.333 253.952C155.76 253.706 155.908 253.375 155.841 253.055C155.859 252.968 155.859 252.884 155.841 252.796C155.859 252.708 155.859 252.625 155.841 252.538C155.907 252.218 155.758 251.886 155.333 251.64L148.97 247.966C148.235 247.542 147.043 247.542 146.308 247.966L138.741 252.334C138.315 252.58 138.166 252.912 138.234 253.232C138.215 253.319 138.215 253.402 138.234 253.49C138.215 253.577 138.215 253.66 138.234 253.748C138.167 254.07 138.316 254.402 138.741 254.647ZM163.174 240.54L169.538 244.215C170.273 244.64 171.465 244.64 172.2 244.215L179.767 239.846C180.192 239.601 180.343 239.269 180.275 238.949C180.293 238.862 180.293 238.778 180.275 238.691C180.293 238.604 180.293 238.52 180.275 238.433C180.341 238.113 180.192 237.781 179.767 237.536L173.404 233.861C172.669 233.436 171.477 233.436 170.742 233.861L163.175 238.23C162.75 238.475 162.6 238.807 162.668 239.127C162.65 239.214 162.65 239.298 162.668 239.385C162.65 239.472 162.65 239.556 162.668 239.643C162.599 239.963 162.749 240.295 163.174 240.54ZM150.957 247.594L157.321 251.268C158.056 251.692 159.248 251.692 159.983 251.268L167.55 246.9C167.975 246.654 168.125 246.322 168.057 246.003C168.075 245.915 168.075 245.832 168.057 245.743C168.075 245.656 168.075 245.573 168.057 245.485C168.125 245.166 167.975 244.834 167.55 244.588L161.185 240.913C160.45 240.49 159.258 240.49 158.523 240.913L150.956 245.283C150.531 245.529 150.381 245.861 150.449 246.181C150.431 246.268 150.431 246.351 150.449 246.439C150.431 246.526 150.431 246.609 150.449 246.696C150.382 247.016 150.532 247.348 150.957 247.594ZM246.014 214.785L237.637 209.949C236.722 209.421 235.241 209.421 234.328 209.949L215.155 221.018C214.64 221.315 214.448 221.715 214.513 222.102C214.498 222.19 214.498 222.273 214.513 222.36C214.498 222.448 214.498 222.531 214.513 222.62C214.448 223.007 214.64 223.407 215.155 223.705L231.866 233.352C232.779 233.881 234.261 233.881 235.176 233.352L266.979 214.991C267.494 214.694 267.687 214.294 267.621 213.906C267.636 213.818 267.636 213.735 267.621 213.648C267.636 213.56 267.636 213.477 267.621 213.389C267.687 213.001 267.494 212.601 266.979 212.305L260.76 208.714C260.154 208.364 259.17 208.361 258.56 208.709L247.874 214.789C247.357 215.083 246.526 215.08 246.014 214.785Z" fill="#D5CCBC"/>
<path d="M156.035 346.389L150.153 342.994C149.817 342.8 149.545 342.371 149.545 342.034V340.658C149.545 340.323 149.817 340.208 150.153 340.402L156.035 343.798C156.371 343.991 156.643 344.421 156.643 344.757V346.133C156.643 346.468 156.371 346.583 156.035 346.389Z" fill="#201521"/>
<path d="M146.928 341.132L141.045 337.736C140.71 337.542 140.438 337.113 140.438 336.777V335.401C140.438 335.065 140.71 334.95 141.045 335.144L146.928 338.54C147.265 338.734 147.536 339.164 147.536 339.499V340.875C147.536 341.21 147.263 341.324 146.928 341.132Z" fill="#201521"/>
<path d="M94.2522 288.107L86.6852 292.477C85.95 292.9 84.7583 292.9 84.0232 292.477L77.6588 288.802C76.9236 288.377 76.9236 287.689 77.6588 287.265L85.2258 282.897C85.9609 282.473 87.1527 282.473 87.8878 282.897L94.251 286.571C94.9874 286.994 94.9873 287.683 94.2522 288.107ZM106.469 279.516L100.106 275.842C99.3704 275.418 98.1786 275.418 97.4435 275.842L89.8765 280.21C89.1413 280.634 89.1413 281.323 89.8765 281.747L96.2396 285.422C96.9748 285.846 98.1665 285.846 98.9017 285.422L106.469 281.053C107.204 280.629 107.204 279.942 106.469 279.516ZM118.685 272.464L112.322 268.79C111.587 268.366 110.395 268.366 109.66 268.79L102.093 273.158C101.358 273.582 101.358 274.271 102.093 274.695L108.456 278.37C109.191 278.793 110.383 278.793 111.118 278.37L118.685 274.001C119.42 273.576 119.42 272.888 118.685 272.464ZM130.902 265.411L124.537 261.736C123.802 261.312 122.61 261.312 121.875 261.736L114.308 266.105C113.573 266.529 113.573 267.218 114.308 267.642L120.671 271.316C121.407 271.741 122.598 271.741 123.333 271.316L130.9 266.948C131.637 266.522 131.637 265.835 130.902 265.411ZM143.118 258.357L136.755 254.683C136.02 254.259 134.828 254.259 134.093 254.683L126.526 259.052C125.791 259.476 125.791 260.165 126.526 260.589L132.89 264.264C133.625 264.688 134.817 264.688 135.552 264.264L143.119 259.895C143.853 259.469 143.853 258.781 143.118 258.357ZM155.335 251.304L148.971 247.629C148.236 247.204 147.045 247.204 146.309 247.629L138.742 251.998C138.007 252.422 138.007 253.111 138.742 253.534L145.106 257.209C145.841 257.633 147.032 257.633 147.768 257.209L155.335 252.841C156.07 252.417 156.07 251.729 155.335 251.304ZM167.551 244.25L161.187 240.576C160.452 240.152 159.26 240.152 158.525 240.576L150.958 244.944C150.222 245.368 150.222 246.057 150.958 246.481L157.321 250.156C158.056 250.581 159.248 250.581 159.983 250.156L167.55 245.787C168.286 245.363 168.286 244.675 167.551 244.25ZM179.768 237.197L173.404 233.522C172.669 233.098 171.477 233.098 170.742 233.522L163.175 237.892C162.44 238.316 162.44 239.005 163.175 239.429L169.54 243.103C170.275 243.527 171.467 243.527 172.202 243.103L179.769 238.735C180.501 238.31 180.501 237.622 179.768 237.197ZM191.984 230.144L185.621 226.47C184.886 226.045 183.694 226.045 182.959 226.47L175.392 230.838C174.657 231.262 174.657 231.951 175.392 232.375L181.755 236.05C182.49 236.474 183.682 236.474 184.417 236.05L191.984 231.681C192.718 231.256 192.718 230.568 191.984 230.144ZM208.138 220.816L201.775 217.142C201.039 216.718 199.848 216.718 199.113 217.142L187.607 223.785C186.872 224.209 186.872 224.898 187.607 225.322L193.97 228.996C194.705 229.42 195.897 229.42 196.632 228.996L208.138 222.353C208.873 221.929 208.873 221.241 208.138 220.816ZM254.024 233.012L247.661 229.338C246.926 228.914 245.734 228.914 244.999 229.338L237.432 233.706C236.697 234.131 236.697 234.819 237.432 235.243L243.795 238.918C244.531 239.341 245.722 239.341 246.457 238.918L254.024 234.548C254.76 234.124 254.76 233.436 254.024 233.012ZM266.241 225.959L259.876 222.284C259.141 221.86 257.95 221.86 257.214 222.284L249.647 226.654C248.912 227.078 248.912 227.767 249.647 228.191L256.011 231.865C256.746 232.289 257.938 232.289 258.673 231.865L266.24 227.497C266.976 227.072 266.976 226.383 266.241 225.959ZM278.457 218.905L272.094 215.231C271.359 214.807 270.167 214.807 269.432 215.231L261.865 219.599C261.13 220.023 261.13 220.712 261.865 221.136L268.228 224.811C268.963 225.234 270.155 225.234 270.89 224.811L278.457 220.442C279.192 220.018 279.192 219.33 278.457 218.905ZM265.192 239.46L258.829 235.786C258.094 235.362 256.902 235.362 256.167 235.786L248.6 240.154C247.865 240.578 247.865 241.267 248.6 241.691L254.963 245.366C255.698 245.789 256.89 245.789 257.625 245.366L265.192 240.997C265.927 240.572 265.927 239.884 265.192 239.46ZM277.409 232.407L271.045 228.732C270.31 228.308 269.118 228.308 268.383 228.732L260.816 233.101C260.081 233.526 260.081 234.214 260.816 234.638L267.179 238.312C267.915 238.736 269.106 238.736 269.841 238.312L277.409 233.942C278.144 233.518 278.144 232.831 277.409 232.407ZM289.625 225.353L283.262 221.679C282.527 221.255 281.335 221.255 280.6 221.679L273.033 226.047C272.298 226.471 272.298 227.16 273.033 227.584L279.396 231.259C280.131 231.682 281.323 231.682 282.058 231.259L289.625 226.89C290.36 226.466 290.36 225.778 289.625 225.353ZM109.568 290.676L103.205 287.001C102.47 286.577 101.278 286.577 100.543 287.001L89.0372 293.644C88.302 294.068 88.302 294.757 89.0372 295.181L95.4003 298.856C96.1355 299.279 97.3272 299.279 98.0623 298.856L109.568 292.213C110.303 291.789 110.303 291.101 109.568 290.676ZM121.784 283.622L115.42 279.948C114.685 279.524 113.493 279.524 112.758 279.948L105.191 284.317C104.456 284.741 104.456 285.43 105.191 285.854L111.554 289.529C112.289 289.953 113.481 289.953 114.216 289.529L121.783 285.16C122.52 284.735 122.52 284.047 121.784 283.622ZM134.001 276.57L127.638 272.895C126.903 272.47 125.711 272.47 124.976 272.895L117.409 277.264C116.674 277.688 116.674 278.377 117.409 278.801L123.773 282.475C124.508 282.899 125.7 282.899 126.435 282.475L134.002 278.107C134.736 277.682 134.736 276.994 134.001 276.57ZM146.217 269.516L139.854 265.842C139.119 265.418 137.927 265.418 137.192 265.842L129.625 270.21C128.89 270.634 128.89 271.323 129.625 271.747L135.988 275.422C136.723 275.847 137.915 275.847 138.65 275.422L146.217 271.053C146.952 270.628 146.952 269.94 146.217 269.516ZM158.434 262.463L152.069 258.788C151.334 258.364 150.143 258.364 149.407 258.788L141.84 263.157C141.105 263.582 141.105 264.27 141.84 264.694L148.204 268.368C148.939 268.792 150.13 268.792 150.866 268.368L158.433 263.999C159.169 263.575 159.169 262.887 158.434 262.463ZM170.65 255.409L164.287 251.735C163.552 251.31 162.36 251.31 161.625 251.735L154.058 256.103C153.323 256.527 153.323 257.216 154.058 257.64L160.422 261.315C161.158 261.739 162.349 261.739 163.084 261.315L170.652 256.946C171.385 256.522 171.385 255.834 170.65 255.409ZM182.867 248.356L176.504 244.681C175.768 244.257 174.577 244.257 173.842 244.681L166.275 249.05C165.539 249.474 165.539 250.163 166.275 250.587L172.638 254.261C173.373 254.685 174.565 254.685 175.3 254.261L182.867 249.893C183.602 249.469 183.602 248.781 182.867 248.356ZM195.083 241.302L188.72 237.628C187.985 237.204 186.793 237.204 186.058 237.628L178.491 241.996C177.756 242.421 177.756 243.109 178.491 243.533L184.854 247.208C185.589 247.632 186.781 247.632 187.516 247.208L195.083 242.838C195.818 242.415 195.818 241.727 195.083 241.302ZM207.3 234.249L200.937 230.574C200.201 230.15 199.01 230.15 198.275 230.574L190.708 234.944C189.972 235.368 189.972 236.057 190.708 236.481L197.072 240.155C197.807 240.579 198.999 240.579 199.734 240.155L207.301 235.787C208.035 235.362 208.035 234.674 207.3 234.249ZM219.516 227.196L213.153 223.522C212.418 223.098 211.226 223.098 210.491 223.522L202.924 227.89C202.189 228.314 202.189 229.003 202.924 229.427L209.287 233.102C210.022 233.526 211.214 233.526 211.949 233.102L219.516 228.733C220.251 228.308 220.251 227.62 219.516 227.196ZM116.451 299.387L110.087 295.713C109.352 295.289 108.161 295.289 107.425 295.713L99.8584 300.081C99.1233 300.506 99.1233 301.194 99.8584 301.618L106.223 305.293C106.958 305.716 108.15 305.716 108.885 305.293L116.452 300.923C117.186 300.499 117.186 299.811 116.451 299.387ZM128.667 292.334L122.304 288.659C121.569 288.235 120.377 288.235 119.642 288.659L112.075 293.029C111.34 293.453 111.34 294.142 112.075 294.566L118.438 298.24C119.173 298.664 120.365 298.664 121.1 298.24L128.667 293.872C129.402 293.447 129.402 292.759 128.667 292.334ZM140.884 285.28L134.52 281.606C133.785 281.182 132.594 281.182 131.858 281.606L124.291 285.974C123.556 286.398 123.556 287.087 124.291 287.511L130.655 291.186C131.39 291.609 132.581 291.609 133.317 291.186L140.884 286.817C141.62 286.393 141.62 285.705 140.884 285.28ZM153.1 278.228L146.736 274.553C146.001 274.129 144.809 274.129 144.074 274.553L136.507 278.922C135.772 279.346 135.772 280.035 136.507 280.459L142.87 284.133C143.605 284.557 144.797 284.557 145.532 284.133L153.099 279.764C153.835 279.34 153.835 278.652 153.1 278.228ZM138.604 312.178L132.241 308.503C131.506 308.079 130.314 308.079 129.579 308.503L122.012 312.872C121.277 313.296 121.277 313.985 122.012 314.409L128.375 318.083C129.11 318.507 130.302 318.507 131.037 318.083L138.604 313.715C139.341 313.291 139.341 312.603 138.604 312.178ZM150.822 305.124L144.458 301.45C143.722 301.026 142.531 301.026 141.796 301.45L134.229 305.818C133.493 306.242 133.493 306.931 134.229 307.355L140.592 311.03C141.327 311.453 142.519 311.453 143.254 311.03L150.821 306.66C151.557 306.237 151.557 305.549 150.822 305.124ZM163.037 298.071L156.674 294.396C155.939 293.972 154.747 293.972 154.012 294.396L146.445 298.766C145.71 299.19 145.71 299.879 146.445 300.303L152.808 303.977C153.543 304.401 154.735 304.401 155.47 303.977L163.037 299.609C163.772 299.184 163.772 298.496 163.037 298.071ZM175.254 291.018L168.891 287.344C168.155 286.919 166.964 286.919 166.229 287.344L158.662 291.712C157.926 292.136 157.926 292.825 158.662 293.249L165.025 296.924C165.76 297.348 166.952 297.348 167.687 296.924L175.254 292.555C175.989 292.13 175.989 291.442 175.254 291.018ZM252.418 246.466L246.055 242.792C245.32 242.368 244.128 242.368 243.393 242.792L231.888 249.435C231.153 249.859 231.153 250.548 231.888 250.972L238.251 254.646C238.986 255.07 240.178 255.07 240.913 254.646L252.418 248.003C253.154 247.579 253.154 246.89 252.418 246.466ZM165.317 271.174L158.953 267.5C158.218 267.076 157.027 267.076 156.291 267.5L148.724 271.87C147.989 272.293 147.989 272.983 148.724 273.406L155.088 277.081C155.823 277.505 157.014 277.505 157.75 277.081L165.317 272.712C166.052 272.286 166.052 271.598 165.317 271.174ZM177.533 264.121L171.17 260.446C170.435 260.022 169.243 260.022 168.508 260.446L160.941 264.815C160.206 265.239 160.206 265.928 160.941 266.352L167.304 270.026C168.039 270.45 169.231 270.45 169.966 270.026L177.533 265.658C178.268 265.234 178.268 264.545 177.533 264.121ZM189.75 257.067L183.385 253.393C182.65 252.969 181.458 252.969 180.723 253.393L173.156 257.761C172.421 258.185 172.421 258.874 173.156 259.298L179.519 262.973C180.254 263.398 181.446 263.398 182.181 262.973L189.748 258.604C190.485 258.18 190.485 257.492 189.75 257.067ZM201.966 250.014L195.603 246.339C194.868 245.915 193.676 245.915 192.941 246.339L185.374 250.709C184.639 251.133 184.639 251.822 185.374 252.246L191.738 255.92C192.473 256.344 193.665 256.344 194.4 255.92L201.967 251.551C202.701 251.127 202.701 250.439 201.966 250.014ZM214.182 242.962L207.819 239.287C207.084 238.862 205.892 238.862 205.157 239.287L197.59 243.655C196.855 244.079 196.855 244.768 197.59 245.192L203.953 248.867C204.689 249.291 205.88 249.291 206.615 248.867L214.182 244.498C214.918 244.073 214.918 243.385 214.182 242.962ZM230.338 233.634L223.974 229.959C223.239 229.535 222.047 229.535 221.312 229.959L209.807 236.602C209.072 237.026 209.072 237.715 209.807 238.139L216.17 241.813C216.905 242.238 218.097 242.238 218.832 241.813L230.338 235.17C231.073 234.747 231.073 234.059 230.338 233.634ZM131.768 303.493L125.404 299.818C124.669 299.394 123.478 299.394 122.742 299.818L111.237 306.461C110.502 306.885 110.502 307.574 111.237 307.998L117.6 311.673C118.335 312.097 119.527 312.097 120.262 311.673L131.768 305.03C132.503 304.606 132.503 303.917 131.768 303.493ZM143.984 296.439L137.621 292.765C136.886 292.341 135.694 292.341 134.959 292.765L127.392 297.133C126.657 297.557 126.657 298.246 127.392 298.67L133.755 302.345C134.49 302.769 135.682 302.769 136.417 302.345L143.984 297.976C144.719 297.552 144.719 296.863 143.984 296.439ZM156.201 289.386L149.837 285.711C149.102 285.286 147.91 285.286 147.175 285.711L139.608 290.08C138.873 290.504 138.873 291.193 139.608 291.617L145.971 295.291C146.707 295.715 147.898 295.715 148.634 295.291L156.201 290.923C156.936 290.499 156.936 289.811 156.201 289.386ZM168.417 282.332L162.054 278.658C161.319 278.234 160.127 278.234 159.392 278.658L151.825 283.026C151.09 283.45 151.09 284.139 151.825 284.563L158.188 288.238C158.923 288.663 160.115 288.663 160.85 288.238L168.417 283.869C169.152 283.445 169.152 282.757 168.417 282.332ZM180.633 275.28L174.269 271.606C173.534 271.182 172.342 271.182 171.607 271.606L164.04 275.974C163.305 276.398 163.305 277.087 164.04 277.511L170.403 281.185C171.138 281.609 172.33 281.609 173.065 281.185L180.632 276.816C181.369 276.392 181.369 275.704 180.633 275.28ZM236.537 255.762L230.174 252.087C229.439 251.663 228.247 251.663 227.512 252.087L170.934 284.753C170.199 285.177 170.199 285.866 170.934 286.29L177.297 289.965C178.032 290.389 179.224 290.389 179.959 289.965L236.537 257.299C237.272 256.875 237.272 256.187 236.537 255.762ZM192.85 268.226L186.487 264.552C185.752 264.127 184.56 264.127 183.825 264.552L176.258 268.92C175.523 269.344 175.523 270.033 176.258 270.457L182.622 274.132C183.357 274.556 184.549 274.556 185.284 274.132L192.851 269.763C193.585 269.34 193.585 268.65 192.85 268.226ZM205.066 261.173L198.703 257.498C197.968 257.075 196.776 257.075 196.041 257.498L188.474 261.867C187.739 262.291 187.739 262.98 188.474 263.404L194.837 267.078C195.573 267.503 196.764 267.503 197.499 267.078L205.066 262.71C205.802 262.286 205.802 261.597 205.066 261.173ZM217.283 254.119L210.919 250.445C210.183 250.021 208.992 250.021 208.257 250.445L200.689 254.813C199.954 255.239 199.954 255.926 200.689 256.35L207.053 260.025C207.788 260.449 208.98 260.449 209.715 260.025L217.282 255.656C218.018 255.232 218.018 254.545 217.283 254.119ZM229.499 247.066L223.136 243.393C222.401 242.968 221.209 242.968 220.474 243.393L212.907 247.761C212.172 248.185 212.172 248.874 212.907 249.298L219.272 252.973C220.007 253.396 221.198 253.396 221.934 252.973L229.501 248.604C230.235 248.179 230.235 247.491 229.499 247.066ZM241.716 240.014L235.353 236.339C234.618 235.915 233.426 235.915 232.691 236.339L225.124 240.708C224.388 241.132 224.388 241.821 225.124 242.245L231.487 245.919C232.222 246.343 233.414 246.343 234.149 245.919L241.716 241.551C242.451 241.125 242.451 240.438 241.716 240.014ZM220.584 213.705L214.221 210.03C213.486 209.605 212.294 209.605 211.559 210.03L203.992 214.399C203.257 214.823 203.257 215.512 203.992 215.936L210.357 219.61C211.092 220.034 212.283 220.034 213.019 219.61L220.586 215.242C221.32 214.818 221.32 214.13 220.584 213.705ZM232.8 206.651L226.437 202.977C225.701 202.553 224.51 202.553 223.774 202.977L216.207 207.345C215.472 207.769 215.472 208.458 216.207 208.882L222.571 212.557C223.306 212.98 224.498 212.98 225.233 212.557L232.8 208.188C233.535 207.764 233.535 207.076 232.8 206.651ZM245.016 199.599L238.653 195.924C237.918 195.5 236.726 195.5 235.991 195.924L228.424 200.293C227.689 200.718 227.689 201.406 228.424 201.83L234.787 205.504C235.522 205.928 236.714 205.928 237.449 205.504L245.016 201.136C245.753 200.711 245.753 200.023 245.016 199.599ZM256.157 206.03L249.794 202.355C249.059 201.931 247.867 201.931 247.132 202.355L239.565 206.724C238.83 207.148 238.83 207.837 239.565 208.261L245.928 211.935C246.663 212.359 247.855 212.359 248.59 211.935L256.157 207.567C256.892 207.143 256.892 206.455 256.157 206.03ZM266.978 211.968L260.759 208.377C260.153 208.027 259.169 208.025 258.559 208.372L247.873 214.452C247.357 214.746 246.526 214.744 246.014 214.448L237.637 209.612C236.722 209.084 235.241 209.084 234.328 209.612L215.155 220.682C214.241 221.21 214.241 222.065 215.155 222.593L231.866 232.241C232.779 232.769 234.261 232.769 235.176 232.241L266.98 213.879C267.893 213.351 267.893 212.496 266.978 211.968Z" fill="#332F28"/>
<path opacity="0.5" d="M257.863 156.909L67.8809 266.596V129.029L257.863 19.3428V156.909Z" fill="#A1B7E2"/>
<path opacity="0.8" d="M250.782 160.999L75.1797 262.383V124.816L250.782 23.4316V160.999Z" fill="#F2D7F0"/>
<path d="M263.857 24.3421L73.875 134.029V110.488L263.857 0.801758V24.3421Z" fill="#E7216E"/>
<path d="M187.925 104.729C187.925 116.79 178.148 132.211 166.088 139.175C154.027 146.138 144.25 142.006 144.25 129.945C144.25 117.885 154.027 102.463 166.088 95.5002C178.148 88.5363 187.925 92.6686 187.925 104.729Z" fill="#8FAACC"/>
<path d="M183.907 119.641V119.181L177.26 121.212C170.181 123.375 162.626 128.352 155.873 133.829L148.422 140.338C152.391 143.512 158.814 143.373 166.086 139.174C173.452 134.923 179.952 127.512 183.907 119.641Z" fill="#6480B4"/>
<path d="M158.1 134.306C158.1 136.805 161.674 136.769 166.082 134.223C170.49 131.677 174.064 127.587 174.064 125.088C174.064 124.012 174.026 123.166 173.968 122.421C168.68 124.606 163.246 128.102 158.164 132.024C158.126 132.708 158.1 133.448 158.1 134.306Z" fill="#FFC7AE"/>
<path d="M160.025 126.395C160.03 128.085 160.034 130.146 160.034 131.994C160.034 135.916 172.147 129.121 172.147 125.142C172.147 123.429 172.143 121.297 172.137 119.403L160.025 126.395Z" fill="#F2A883"/>
<path d="M175.822 109.838C175.771 109.297 175.455 109.151 175.084 109.263C175.087 109.167 175.098 109.06 175.098 108.967C175.098 103.384 171.059 101.188 166.077 104.065C161.096 106.941 157.057 113.8 157.057 119.383C157.057 119.47 157.067 119.558 157.069 119.646C156.623 119.934 156.203 120.499 156.142 121.201C155.897 124.066 157.834 125.133 158.699 125.364C160.332 128.003 163.025 129.188 166.078 127.426C169.216 125.614 171.977 121.117 173.593 116.47C174.537 114.992 176.039 112.128 175.822 109.838Z" fill="#FFC7AE"/>
<path d="M173.586 109.966C174.306 109.313 175.086 109.268 175.086 109.268C175.135 108.634 175.177 108.155 175.215 107.595C175.796 99.0126 174.129 95.8419 165.719 100.697C154.834 106.982 155.814 112.186 156.119 117.474C156.175 118.449 156.316 119.289 156.503 120.211C156.801 119.882 157.761 119.219 157.917 119.13C157.85 117.853 157.853 116.546 158.007 115.377C158.347 112.799 162.107 112.309 165.828 110.046C169.688 107.697 172.915 104 173.301 106.016C173.548 107.297 173.604 108.577 173.586 109.966Z" fill="#2B2119"/>
<path d="M198.065 157.788L134.108 194.713C131.682 196.115 129.715 195.283 129.715 192.857C129.715 190.431 131.682 187.329 134.108 185.928L198.065 149.002C200.491 147.602 202.458 148.433 202.458 150.859C202.458 153.285 200.491 156.388 198.065 157.788Z" fill="#BAB3AE"/>
<path d="M135.805 189.34C135.805 189.927 135.33 190.676 134.744 191.014C134.158 191.353 133.682 191.152 133.682 190.566C133.682 189.98 134.156 189.23 134.744 188.892C135.329 188.553 135.805 188.754 135.805 189.34Z" fill="#4F374D"/>
<path d="M141.248 186.198C141.248 186.784 140.773 187.534 140.187 187.872C139.601 188.211 139.125 188.01 139.125 187.424C139.125 186.837 139.6 186.088 140.187 185.75C140.773 185.411 141.248 185.612 141.248 186.198Z" fill="#4F374D"/>
<path d="M146.691 183.054C146.691 183.641 146.215 184.39 145.629 184.728C145.042 185.067 144.566 184.866 144.566 184.28C144.566 183.694 145.041 182.944 145.629 182.606C146.215 182.267 146.691 182.468 146.691 183.054Z" fill="#4F374D"/>
<path d="M152.136 179.912C152.136 180.498 151.661 181.248 151.074 181.586C150.488 181.925 150.012 181.724 150.012 181.137C150.012 180.551 150.486 179.802 151.074 179.464C151.66 179.125 152.136 179.326 152.136 179.912Z" fill="#4F374D"/>
<path d="M157.578 176.769C157.578 177.355 157.103 178.105 156.516 178.443C155.93 178.782 155.455 178.581 155.455 177.995C155.455 177.409 155.93 176.659 156.516 176.321C157.103 175.982 157.578 176.183 157.578 176.769Z" fill="#4F374D"/>
<path d="M163.022 173.626C163.022 174.212 162.547 174.962 161.959 175.3C161.373 175.639 160.898 175.438 160.898 174.852C160.898 174.265 161.373 173.516 161.959 173.177C162.546 172.839 163.022 173.04 163.022 173.626Z" fill="#4F374D"/>
<path d="M168.465 170.483C168.465 171.07 167.99 171.819 167.404 172.157C166.818 172.496 166.342 172.295 166.342 171.709C166.342 171.123 166.817 170.373 167.404 170.034C167.99 169.696 168.465 169.897 168.465 170.483Z" fill="#4F374D"/>
<path d="M198.065 144.029L134.108 180.954C131.682 182.354 129.715 181.523 129.715 179.097C129.715 176.672 131.682 173.569 134.108 172.169L198.065 135.243C200.491 133.842 202.458 134.674 202.458 137.1C202.458 139.526 200.491 142.628 198.065 144.029Z" fill="#BAB3AE"/>
<path d="M135.154 177.61L134.772 177.83C134.462 178.009 134.219 178.06 134.047 177.982C133.874 177.904 133.787 177.705 133.787 177.387V175.008C133.787 174.945 133.82 174.894 133.883 174.858L134.19 174.68C134.286 174.72 134.286 177.079 134.286 177.079C134.286 177.475 134.475 177.565 134.853 177.346L135.243 177.121C135.448 177.002 135.605 176.856 135.714 176.685C135.823 176.511 135.877 176.326 135.877 176.125V173.801C135.877 173.738 135.909 173.687 135.973 173.651L136.281 173.473C136.376 173.513 136.376 176.808 136.376 176.808C136.376 176.871 136.345 176.922 136.281 176.958L135.973 177.136C135.877 177.096 135.877 176.83 135.877 176.83C135.738 177.153 135.506 177.408 135.154 177.61Z" fill="#4F374D"/>
<path d="M138.503 175.677L137.286 176.379C137.19 176.339 137.19 176.099 137.19 176.099C137.19 176.04 137.223 175.992 137.286 175.955L138.434 175.292C138.789 175.087 138.967 174.852 138.967 174.588C138.967 174.217 138.85 174.117 138.618 174.16L137.811 174.284C137.579 174.323 137.413 174.306 137.312 174.234C137.212 174.162 137.162 174.019 137.162 173.804C137.162 173.245 137.47 172.787 138.085 172.432L139.206 171.784C139.301 171.824 139.301 172.064 139.301 172.064C139.301 172.123 139.269 172.172 139.206 172.208L138.175 172.804C138.01 172.898 137.886 173.005 137.803 173.121C137.718 173.239 137.676 173.343 137.676 173.434C137.676 173.741 137.805 173.813 138.066 173.763L138.872 173.659C139.108 173.613 139.271 173.641 139.354 173.743C139.439 173.844 139.48 174.027 139.48 174.292C139.48 174.839 139.154 175.3 138.503 175.677Z" fill="#4F374D"/>
<path d="M142.673 173.271L141.224 174.108C140.909 174.29 140.662 174.343 140.483 174.269C140.304 174.195 140.213 173.998 140.213 173.679V172.217C140.213 171.899 140.303 171.597 140.483 171.317C140.663 171.035 140.909 170.804 141.224 170.622L141.798 170.29C142.113 170.109 142.358 170.056 142.536 170.131C142.714 170.206 142.802 170.403 142.802 170.722V171.589C142.802 171.658 142.771 171.71 142.707 171.746L140.772 172.863C140.705 172.963 140.705 173.38 140.705 173.38C140.705 173.776 140.896 173.863 141.279 173.643L142.673 172.837C142.768 172.877 142.768 173.124 142.768 173.124C142.768 173.186 142.737 173.233 142.673 173.271ZM140.772 172.502L142.249 171.649C142.317 171.543 142.317 171.016 142.317 171.016C142.317 170.625 142.125 170.539 141.743 170.759L141.277 171.028C140.895 171.248 140.703 171.555 140.703 171.947V172.474C140.705 172.519 140.726 172.529 140.772 172.502Z" fill="#4F374D"/>
<path d="M144.046 172.477L143.738 172.655C143.643 172.615 143.643 169.321 143.643 169.321C143.643 169.258 143.674 169.207 143.738 169.171L144.046 168.993C144.142 169.033 144.142 169.307 144.142 169.307C144.214 169.165 144.301 169.029 144.429 168.883C144.557 168.736 144.706 168.613 144.88 168.512L145.147 168.358C145.235 168.402 145.235 168.655 145.235 168.655C145.147 168.794 144.777 169.008 144.777 169.008C144.573 169.126 144.415 169.279 144.306 169.464C144.197 169.651 144.143 169.85 144.143 170.065V172.327C144.142 172.39 144.11 172.44 144.046 172.477Z" fill="#4F374D"/>
<path d="M146.251 171.204L145.943 171.382C145.848 171.342 145.848 168.047 145.848 168.047C145.848 167.984 145.879 167.934 145.943 167.897L146.251 167.719C146.347 167.759 146.347 168.026 146.347 168.026C146.488 167.703 146.721 167.448 147.071 167.246L147.454 167.025C147.764 166.846 148.005 166.795 148.178 166.874C148.351 166.951 148.438 167.15 148.438 167.468V169.847C148.438 169.91 148.407 169.961 148.343 169.997L148.035 170.175C147.939 170.135 147.939 167.777 147.939 167.777C147.939 167.381 147.748 167.293 147.365 167.514L146.982 167.735C146.778 167.854 146.62 167.999 146.511 168.171C146.402 168.344 146.348 168.529 146.348 168.73V171.055C146.347 171.116 146.315 171.166 146.251 171.204Z" fill="#4F374D"/>
<path d="M150.645 168.665L150.291 168.87C149.976 169.052 149.729 169.105 149.549 169.031C149.37 168.957 149.279 168.76 149.279 168.441V166.98C149.279 166.661 149.369 166.36 149.549 166.08C149.73 165.798 149.976 165.566 150.291 165.385L151.773 164.528C151.869 164.568 151.869 167.863 151.869 167.863C151.869 167.925 151.837 167.976 151.773 168.013L151.465 168.191C151.37 168.151 151.37 167.884 151.37 167.884C151.229 168.208 150.997 168.463 150.645 168.665ZM151.371 167.182V165.261C151.303 165.238 150.346 165.79 150.346 165.79C149.968 166.008 149.779 166.316 149.779 166.712V168.134C149.779 168.53 149.968 168.618 150.346 168.4L150.736 168.175C150.941 168.056 151.098 167.911 151.207 167.739C151.316 167.568 151.371 167.382 151.371 167.182Z" fill="#4F374D"/>
<path d="M153.218 167.183L152.91 167.361C152.814 167.321 152.814 164.026 152.814 164.026C152.814 163.963 152.847 163.913 152.91 163.876L153.218 163.698C153.313 163.738 153.313 164.005 153.313 164.005C153.467 163.674 153.709 163.414 154.064 163.209L154.317 163.062C154.718 162.831 154.996 162.825 155.151 163.045C155.223 162.853 155.338 162.671 155.496 162.502C155.653 162.331 155.818 162.195 155.991 162.096L156.23 161.958C156.54 161.779 156.781 161.728 156.954 161.806C157.127 161.884 157.213 162.083 157.213 162.401V164.78C157.213 164.843 157.182 164.894 157.118 164.93L156.81 165.108C156.714 165.068 156.714 162.709 156.714 162.709C156.714 162.313 156.523 162.224 156.14 162.446L155.915 162.575C155.709 162.694 155.552 162.844 155.44 163.025C155.329 163.205 155.273 163.395 155.273 163.596V165.9C155.273 165.963 155.242 166.014 155.177 166.05L154.87 166.228C154.774 166.188 154.774 163.83 154.774 163.83C154.774 163.434 154.583 163.346 154.2 163.567L153.947 163.714C153.742 163.833 153.585 163.978 153.476 164.15C153.366 164.323 153.312 164.508 153.312 164.709V167.034C153.313 167.095 153.281 167.146 153.218 167.183Z" fill="#4F374D"/>
<path d="M160.514 162.969L159.066 163.806C158.751 163.987 158.504 164.041 158.325 163.967C158.146 163.893 158.055 163.697 158.055 163.377V161.915C158.055 161.597 158.144 161.295 158.325 161.015C158.505 160.733 158.752 160.502 159.066 160.32L159.64 159.988C159.954 159.807 160.2 159.753 160.378 159.83C160.556 159.904 160.644 160.102 160.644 160.421V161.288C160.644 161.357 160.611 161.409 160.548 161.445L158.614 162.562C158.546 162.661 158.546 163.079 158.546 163.079C158.546 163.475 158.738 163.562 159.12 163.342L160.514 162.536C160.61 162.576 160.61 162.823 160.61 162.823C160.611 162.884 160.58 162.931 160.514 162.969ZM158.615 162.2L160.092 161.347C160.16 161.241 160.16 160.714 160.16 160.714C160.16 160.323 159.968 160.237 159.586 160.457L159.12 160.725C158.738 160.945 158.546 161.251 158.546 161.644V162.171C158.548 162.217 158.569 162.226 158.615 162.2Z" fill="#4F374D"/>
<path d="M174.762 188.416L157.409 198.436C154.563 200.079 152.256 199.103 152.256 196.257C152.256 193.411 154.563 189.772 157.409 188.128L174.762 178.11C177.608 176.466 179.915 177.442 179.915 180.287C179.916 183.133 177.609 186.773 174.762 188.416Z" fill="#2983FF"/>
<path d="M164.234 191.654L163.39 192.14C162.993 192.371 162.687 192.442 162.471 192.356C162.255 192.269 162.146 192.028 162.146 191.631V189.242C162.146 188.845 162.254 188.478 162.471 188.143C162.687 187.807 162.993 187.525 163.39 187.296L164.234 186.809C164.632 186.58 164.938 186.509 165.154 186.595C165.369 186.681 165.478 186.923 165.478 187.32V189.709C165.478 190.106 165.369 190.472 165.154 190.808C164.938 191.141 164.632 191.425 164.234 191.654ZM163.542 191.225L164.077 190.916C164.238 190.823 164.352 190.722 164.42 190.617C164.488 190.509 164.521 190.376 164.521 190.215V187.916C164.521 187.755 164.488 187.662 164.42 187.633C164.352 187.604 164.238 187.636 164.077 187.728L163.542 188.037C163.381 188.13 163.268 188.229 163.203 188.335C163.137 188.441 163.104 188.574 163.104 188.734V191.032C163.104 191.193 163.137 191.289 163.203 191.319C163.268 191.348 163.381 191.318 163.542 191.225Z" fill="#FFF9F3"/>
<path d="M167.18 189.952L166.54 190.321C166.433 190.382 166.381 190.36 166.381 190.255V185.725C166.381 185.62 166.433 185.537 166.54 185.475L167.18 185.106C167.286 185.046 167.339 185.067 167.339 185.173V187.321C167.395 187.169 167.472 186.968 167.587 186.711L168.733 184.369C168.797 184.226 168.895 184.117 169.026 184.042L169.765 183.615C169.824 183.755 168.393 186.562 168.393 186.562L169.991 188.141C169.988 188.314 169.94 188.358 169.87 188.399L169.32 188.716C169.145 188.818 169.026 188.834 168.967 188.764L167.814 187.583L167.339 188.414V189.703C167.339 189.808 167.287 189.891 167.18 189.952Z" fill="#FFF9F3"/>
<g opacity="0.5">
<path d="M148.421 140.338C148.906 140.727 149.43 141.063 149.987 141.35C151.747 142.241 153.74 142.638 155.97 142.52C156.039 142.516 156.111 142.504 156.182 142.5C156.808 142.458 157.451 142.377 158.11 142.255C158.313 142.218 158.521 142.171 158.729 142.125C159.274 142.005 159.826 141.859 160.39 141.686C160.643 141.609 160.895 141.531 161.151 141.443C161.713 141.249 162.284 141.02 162.862 140.772C163.107 140.668 163.347 140.576 163.594 140.462C164.412 140.082 165.242 139.663 166.086 139.176C166.937 138.684 167.774 138.14 168.6 137.568C168.85 137.395 169.092 137.209 169.338 137.03C169.92 136.607 170.495 136.171 171.061 135.712C171.323 135.5 171.58 135.283 171.838 135.064C172.404 134.582 172.96 134.084 173.508 133.569C173.718 133.371 173.932 133.177 174.139 132.974C174.839 132.292 175.521 131.588 176.183 130.86C177.779 129.097 179.155 127.342 180.412 125.52C180.479 125.425 180.542 125.327 180.607 125.23C181.167 124.406 181.698 123.573 182.204 122.726C182.263 122.627 182.322 122.529 182.38 122.43C185.816 116.587 187.921 110.303 187.921 104.729C187.921 92.669 178.144 88.5367 166.084 95.4993C154.023 102.462 144.246 117.884 144.246 129.945C144.247 134.733 145.807 138.248 148.421 140.338Z" fill="#201323"/>
<path d="M198.065 149.001L134.108 185.926C131.682 187.328 129.715 190.429 129.715 192.855C129.715 195.281 131.682 196.113 134.108 194.712L198.065 157.786C200.491 156.386 202.458 153.283 202.458 150.858C202.458 148.432 200.491 147.6 198.065 149.001Z" fill="#201323"/>
<path d="M134.108 180.953L198.065 144.027C200.491 142.627 202.458 139.524 202.458 137.098C202.458 134.672 200.491 133.842 198.065 135.242L134.108 172.167C131.682 173.567 129.715 176.67 129.715 179.096C129.715 181.522 131.682 182.354 134.108 180.953Z" fill="#201323"/>
<path d="M174.762 178.108L157.409 188.127C154.563 189.77 152.256 193.409 152.256 196.256C152.256 199.102 154.563 200.077 157.409 198.433L174.762 188.415C177.608 186.771 179.915 183.132 179.915 180.286C179.916 177.441 177.609 176.466 174.762 178.108Z" fill="#201323"/>
</g>
<path d="M260.372 14.3433C260.372 15.4273 259.493 16.814 258.409 17.4401C257.325 18.0663 256.446 17.6945 256.446 16.6105C256.446 15.5266 257.325 14.1399 258.409 13.5149C259.493 12.8876 260.372 13.2594 260.372 14.3433ZM250.857 17.8737C249.774 18.4999 248.894 19.8854 248.894 20.9705C248.894 22.0545 249.774 22.4263 250.857 21.8001C251.941 21.174 252.821 19.7885 252.821 18.7033C252.819 17.6194 251.941 17.2476 250.857 17.8737ZM243.305 22.2337C242.221 22.8599 241.342 24.2454 241.342 25.3305C241.342 26.4157 242.221 26.7863 243.305 26.1601C244.389 25.534 245.268 24.1485 245.268 23.0633C245.268 21.9794 244.389 21.6076 243.305 22.2337Z" fill="#F0F6FD"/>
<path opacity="0.4" d="M250.782 92.2774L75.1797 193.662V166.755L250.782 65.3701V92.2774Z" fill="#201323"/>
<path opacity="0.4" d="M256.427 95.5362L80.8242 196.921V170.013L256.427 68.6289V95.5362Z" fill="#201323"/>
<path opacity="0.8" d="M262.872 99.2579L87.2695 200.642V173.735L262.872 72.3506V99.2579Z" fill="#201323"/>
<path d="M101.25 170.527L98.3029 172.228C97.9638 172.423 97.7421 172.746 97.6368 173.192L94.1367 191.799C94.0483 192.236 94.1367 192.379 94.4019 192.225L96.5298 190.996C96.6776 190.911 96.7842 190.808 96.8508 190.686C96.9174 190.566 96.9658 190.385 96.9949 190.148L97.615 186.754L101.936 184.26L102.556 186.936C102.587 187.14 102.63 187.267 102.69 187.314C102.749 187.362 102.859 187.341 103.021 187.247L105.149 186.018C105.417 185.864 105.504 185.62 105.417 185.284L101.914 170.721C101.842 170.379 101.62 170.314 101.25 170.527ZM98.1479 183.632L99.7441 174.734C99.8325 174.683 101.429 181.738 101.429 181.738L98.1479 183.632Z" fill="#E7216E"/>
<path d="M113.239 163.605L110.823 165C109.656 165.674 108.755 166.581 108.12 167.719C107.485 168.858 107.168 170.155 107.168 171.609V180.357C107.168 181.812 107.485 182.741 108.12 183.148C108.755 183.553 109.657 183.419 110.823 182.746L113.239 181.35C114.391 180.686 115.287 179.777 115.932 178.624C116.573 177.471 116.894 176.177 116.894 174.741V173.444C116.894 173.04 116.732 172.931 116.408 173.118L114.546 174.193C114.236 174.372 114.081 174.665 114.081 175.068V176.201C114.081 176.789 113.98 177.267 113.782 177.629C113.582 177.992 113.247 178.311 112.773 178.583L111.265 179.454C110.807 179.718 110.478 179.783 110.279 179.65C110.081 179.517 109.98 179.156 109.98 178.567V170.15C109.98 169.561 110.081 169.084 110.279 168.722C110.479 168.359 110.807 168.044 111.265 167.78L112.773 166.909C113.245 166.637 113.581 166.568 113.782 166.7C113.98 166.833 114.081 167.194 114.081 167.782V168.915C114.081 169.319 114.236 169.432 114.546 169.253L116.408 168.178C116.732 167.991 116.894 167.695 116.894 167.291V165.994C116.894 164.558 116.573 163.635 115.932 163.224C115.287 162.813 114.391 162.939 113.239 163.605Z" fill="#E7216E"/>
<path d="M125.162 156.722L122.745 158.117C121.579 158.791 120.676 159.698 120.042 160.836C119.407 161.975 119.09 163.272 119.09 164.726V173.474C119.09 174.929 119.407 175.858 120.042 176.265C120.676 176.67 121.579 176.536 122.745 175.862L125.162 174.467C126.314 173.801 127.21 172.894 127.855 171.74C128.497 170.587 128.818 169.293 128.818 167.858V166.561C128.818 166.157 128.655 166.048 128.331 166.235L126.469 167.31C126.159 167.489 126.004 167.782 126.004 168.185V169.318C126.004 169.906 125.904 170.383 125.705 170.746C125.505 171.109 125.168 171.427 124.696 171.7L123.188 172.571C122.73 172.835 122.402 172.9 122.202 172.767C122.004 172.634 121.903 172.273 121.903 171.684V163.267C121.903 162.678 122.004 162.201 122.202 161.839C122.402 161.474 122.73 161.161 123.188 160.897L124.696 160.026C125.168 159.753 125.504 159.684 125.705 159.816C125.904 159.95 126.004 160.311 126.004 160.899V162.032C126.004 162.436 126.159 162.549 126.469 162.369L128.331 161.295C128.655 161.108 128.818 160.812 128.818 160.407V159.11C128.818 157.675 128.497 156.752 127.855 156.341C127.21 155.93 126.314 156.057 125.162 156.722Z" fill="#E7216E"/>
<path d="M138.946 148.763L131.699 152.946C131.389 153.125 131.234 153.408 131.234 153.794V170.38C131.234 170.766 131.389 170.869 131.699 170.691L138.946 166.508C139.241 166.337 139.389 166.059 139.389 165.673V163.797C139.389 163.41 139.241 163.302 138.946 163.473L134.314 166.147C134.136 166.25 134.048 166.201 134.048 165.997V162.162C134.048 161.959 134.136 161.808 134.314 161.704L138.104 159.516C138.414 159.337 138.569 159.055 138.569 158.669V156.793C138.569 156.406 138.414 156.303 138.104 156.481L134.314 158.669C134.136 158.772 134.048 158.722 134.048 158.519V154.931C134.048 154.729 134.136 154.578 134.314 154.475L138.946 151.8C139.241 151.63 139.389 151.351 139.389 150.965V149.089C139.389 148.7 139.241 148.592 138.946 148.763Z" fill="#E7216E"/>
<path d="M149.45 150.785C148.474 150.851 147.359 151.183 146.103 151.779C144.89 152.35 144.285 152.203 144.285 151.338V150.814C144.285 149.985 144.393 149.367 144.607 148.958C144.82 148.55 145.231 148.17 145.838 147.82L146.701 147.321C147.291 146.981 147.699 146.874 147.921 147.004C148.142 147.133 148.252 147.558 148.252 148.275C148.252 148.826 148.407 148.931 148.718 148.751L150.601 147.664C150.913 147.483 151.068 147.201 151.068 146.815V146.29C151.068 144.855 150.741 143.931 150.092 143.513C149.441 143.099 148.532 143.227 147.366 143.902L145.151 145.181C143.999 145.846 143.097 146.762 142.446 147.929C141.797 149.095 141.473 150.396 141.473 151.831V152.796C141.473 153.937 141.646 154.772 141.993 155.297C142.34 155.824 142.772 156.062 143.288 156.012C143.805 155.961 144.362 155.844 144.962 155.653C145.561 155.463 146.118 155.248 146.636 155.006C147.153 154.762 147.584 154.682 147.933 154.767C148.279 154.852 148.454 155.162 148.454 155.695V156.027C148.454 156.781 148.338 157.362 148.11 157.77C147.881 158.179 147.479 158.549 146.902 158.882L145.862 159.483C145.271 159.825 144.864 159.93 144.642 159.8C144.421 159.671 144.31 159.255 144.31 158.557V158.336C144.31 157.95 144.155 157.846 143.845 158.025L141.961 159.112C141.651 159.292 141.496 159.574 141.496 159.96V160.512C141.496 161.946 141.82 162.873 142.471 163.288C143.12 163.705 144.022 163.58 145.174 162.914L147.589 161.52C148.742 160.855 149.643 159.938 150.292 158.772C150.944 157.606 151.268 156.304 151.268 154.87V153.931C151.268 152.827 151.095 152.021 150.747 151.513C150.4 151.005 149.966 150.763 149.45 150.785Z" fill="#E7216E"/>
<path d="M161.394 143.889C160.417 143.955 159.302 144.289 158.046 144.883C156.834 145.454 156.228 145.307 156.228 144.442V143.918C156.228 143.09 156.336 142.471 156.552 142.061C156.765 141.653 157.175 141.273 157.782 140.923L158.646 140.424C159.235 140.084 159.644 139.977 159.865 140.107C160.087 140.236 160.197 140.661 160.197 141.378C160.197 141.929 160.352 142.033 160.662 141.854L162.544 140.767C162.857 140.586 163.012 140.304 163.012 139.918V139.393C163.012 137.958 162.686 137.034 162.037 136.617C161.385 136.202 160.477 136.332 159.31 137.006L157.095 138.285C155.942 138.95 155.041 139.867 154.39 141.033C153.741 142.199 153.416 143.5 153.416 144.935V145.901C153.416 147.041 153.589 147.876 153.937 148.401C154.283 148.928 154.716 149.166 155.231 149.116C155.75 149.065 156.307 148.946 156.905 148.758C157.504 148.567 158.062 148.352 158.579 148.108C159.096 147.865 159.527 147.785 159.875 147.87C160.221 147.955 160.396 148.265 160.396 148.797V149.128C160.396 149.883 160.281 150.464 160.052 150.872C159.823 151.28 159.421 151.651 158.843 151.984L157.803 152.585C157.212 152.926 156.805 153.032 156.583 152.902C156.361 152.771 156.251 152.357 156.251 151.658V151.437C156.251 151.05 156.096 150.947 155.786 151.125L153.902 152.213C153.592 152.392 153.437 152.674 153.437 153.061V153.613C153.437 155.047 153.761 155.973 154.412 156.388C155.061 156.804 155.963 156.679 157.115 156.013L159.53 154.619C160.683 153.954 161.584 153.038 162.233 151.871C162.884 150.705 163.208 149.403 163.208 147.969V147.03C163.208 145.927 163.035 145.121 162.687 144.613C162.343 144.11 161.91 143.867 161.394 143.889Z" fill="#E7216E"/>
<path d="M178.301 134.679C179.467 133.547 180.05 132.196 180.05 130.634V129.503C180.05 128.068 179.732 127.147 179.098 126.74C178.463 126.335 177.561 126.469 176.394 127.142L171.076 130.213C170.766 130.392 170.611 130.674 170.611 131.06V147.647C170.611 148.033 170.766 148.136 171.076 147.958L176.616 144.759C177.769 144.093 178.66 143.192 179.297 142.052C179.932 140.913 180.249 139.627 180.249 138.191V136.536C180.249 135.635 180.073 135.043 179.718 134.76C179.363 134.476 178.89 134.449 178.301 134.679ZM173.425 132.085C173.425 131.883 173.506 131.735 173.668 131.642L175.951 130.324C176.423 130.052 176.769 129.975 176.983 130.1C177.196 130.226 177.304 130.572 177.304 131.143V132.219C177.304 132.79 177.193 133.263 176.971 133.64C176.749 134.017 176.403 134.34 175.931 134.614L173.669 135.919C173.507 136.013 173.426 135.959 173.426 135.757L173.425 132.085ZM177.526 139.709C177.526 140.279 177.418 140.75 177.203 141.122C176.99 141.493 176.639 141.821 176.152 142.102L173.669 143.536C173.507 143.629 173.426 143.576 173.426 143.374V139.206C173.426 139.004 173.507 138.855 173.669 138.762L176.107 137.355C176.61 137.064 176.971 136.975 177.193 137.087C177.414 137.198 177.526 137.537 177.526 138.108V139.709Z" fill="#E7216E"/>
<path d="M190.666 133.584L185.99 136.283C185.812 136.386 185.724 136.337 185.724 136.134V122.336C185.724 121.95 185.569 121.847 185.258 122.025L183.375 123.111C183.065 123.291 182.91 123.573 182.91 123.959V140.545C182.91 140.932 183.065 141.035 183.375 140.857L190.666 136.647C190.96 136.477 191.108 136.199 191.108 135.812V133.936C191.108 133.532 190.959 133.414 190.666 133.584Z" fill="#E7216E"/>
<path d="M198.777 114.22L196.294 115.654C195.126 116.328 194.225 117.235 193.591 118.374C192.956 119.514 192.639 120.81 192.639 122.263V131.011C192.639 132.466 192.956 133.395 193.591 133.8C194.225 134.206 195.126 134.072 196.294 133.398L198.777 131.964C199.943 131.291 200.843 130.385 201.48 129.245C202.114 128.106 202.432 126.81 202.432 125.355V116.607C202.432 115.153 202.114 114.224 201.48 113.817C200.844 113.414 199.943 113.547 198.777 114.22ZM199.62 126.815C199.62 127.403 199.519 127.88 199.32 128.243C199.121 128.606 198.785 128.924 198.313 129.197L196.738 130.106C196.266 130.379 195.934 130.447 195.742 130.31C195.55 130.172 195.453 129.81 195.453 129.221V120.804C195.453 120.215 195.55 119.741 195.742 119.382C195.934 119.022 196.266 118.706 196.738 118.434L198.313 117.525C198.785 117.253 199.121 117.184 199.32 117.316C199.519 117.449 199.62 117.81 199.62 118.399V126.815Z" fill="#E7216E"/>
<path d="M210.942 107.196L208.526 108.591C207.36 109.265 206.458 110.172 205.823 111.311C205.188 112.45 204.871 113.747 204.871 115.2V123.948C204.871 125.403 205.188 126.332 205.823 126.737C206.458 127.143 207.36 127.009 208.526 126.335L210.942 124.94C212.094 124.275 212.992 123.367 213.635 122.214C214.277 121.061 214.598 119.767 214.598 118.331V117.034C214.598 116.629 214.435 116.52 214.111 116.708L212.25 117.782C211.94 117.962 211.785 118.255 211.785 118.659V119.79C211.785 120.379 211.685 120.856 211.486 121.218C211.286 121.582 210.95 121.9 210.477 122.173L208.969 123.043C208.512 123.307 208.183 123.373 207.984 123.241C207.785 123.108 207.685 122.747 207.685 122.158V113.741C207.685 113.152 207.785 112.675 207.984 112.313C208.183 111.95 208.512 111.635 208.969 111.371L210.477 110.5C210.95 110.227 211.285 110.158 211.486 110.29C211.685 110.424 211.785 110.785 211.785 111.373V112.504C211.785 112.909 211.94 113.021 212.25 112.842L214.111 111.768C214.435 111.58 214.598 111.285 214.598 110.88V109.583C214.598 108.148 214.277 107.225 213.635 106.813C212.992 106.404 212.095 106.531 210.942 107.196Z" fill="#E7216E"/>
<path d="M222.931 108.166L227.14 98.4781C227.258 98.225 227.298 98.0506 227.262 97.9513C227.225 97.8544 227.125 97.852 226.963 97.9453L224.791 99.1988C224.408 99.4204 224.119 99.7801 223.928 100.277L220.559 108.375C220.218 109.272 219.989 109.974 219.872 110.484C219.827 110.511 219.827 102.644 219.827 102.644C219.827 102.258 219.672 102.155 219.362 102.333L217.479 103.421C217.169 103.6 217.014 103.882 217.014 104.268V120.855C217.014 121.241 217.169 121.344 217.479 121.166L219.362 120.078C219.672 119.899 219.827 119.617 219.827 119.231V114.511L221.224 111.664L224.616 116.467C224.793 116.751 225.139 116.744 225.656 116.445L227.274 115.511C227.481 115.391 227.618 115.253 227.684 115.096C227.75 114.938 227.732 114.778 227.629 114.617L222.931 108.166Z" fill="#E7216E"/>
<path d="M237.09 92.099L229.844 96.2822C229.534 96.4614 229.379 96.7436 229.379 97.13V113.716C229.379 114.102 229.534 114.207 229.844 114.027L237.09 109.844C237.386 109.673 237.533 109.395 237.533 109.009V107.133C237.533 106.746 237.386 106.638 237.09 106.809L232.459 109.483C232.281 109.586 232.192 109.537 232.192 109.333V105.498C232.192 105.295 232.281 105.144 232.459 105.041L236.248 102.854C236.558 102.674 236.713 102.392 236.713 102.006V100.13C236.713 99.7435 236.558 99.6406 236.248 99.8186L232.459 102.006C232.281 102.109 232.192 102.059 232.192 101.856V98.266C232.192 98.0637 232.281 97.9123 232.459 97.8094L237.09 95.1352C237.386 94.9645 237.533 94.6859 237.533 94.2996V92.4236C237.533 92.036 237.386 91.9282 237.09 92.099Z" fill="#E7216E"/>
<path d="M245.932 86.9944L240.459 90.1542C240.149 90.3334 239.994 90.6156 239.994 91.0019V107.588C239.994 107.974 240.149 108.077 240.459 107.899L245.932 104.74C247.085 104.075 247.983 103.165 248.625 102.013C249.266 100.86 249.587 99.5657 249.587 98.1305V89.3827C249.587 87.9475 249.266 87.0247 248.625 86.6117C247.983 86.2011 247.084 86.3295 245.932 86.9944ZM246.774 99.5899C246.774 100.179 246.675 100.654 246.475 101.018C246.275 101.381 245.939 101.7 245.467 101.972L243.051 103.367C242.889 103.461 242.808 103.407 242.808 103.204V92.1368C242.808 91.9345 242.889 91.7867 243.051 91.6935L245.467 90.2983C245.939 90.0258 246.275 89.9568 246.475 90.0888C246.675 90.2208 246.774 90.5829 246.774 91.1715V99.5899Z" fill="#E7216E"/>
<path d="M243.791 178.791C242.294 179.656 240.952 179.656 240.204 178.791C239.455 177.925 239.455 176.376 240.204 174.648L260.268 128.308C261.017 126.579 262.359 125.029 263.856 124.165C265.355 123.299 266.697 123.299 267.445 124.165L287.51 147.335C288.258 148.2 288.258 149.749 287.51 151.479C286.761 153.208 285.42 154.758 283.923 155.621L243.791 178.791Z" fill="#E7216E"/>
<path d="M263.017 127.942L242.951 174.281C242.296 175.795 243.115 176.741 244.426 175.984L284.557 152.814C285.867 152.057 286.687 150.165 286.031 149.408L265.965 126.238C265.311 125.483 263.672 126.429 263.017 127.942Z" fill="#201323"/>
<path d="M267.203 134.548V140.489C267.203 141.51 267.155 142.682 267.065 144C266.971 145.317 266.905 146.296 266.865 146.932C266.822 147.57 266.782 148.092 266.742 148.497C266.7 148.905 266.679 149.12 266.679 149.147C266.597 149.731 266.361 150.135 265.971 150.361L264.217 151.373C263.826 151.598 263.591 151.466 263.509 150.978C263.509 150.952 263.488 150.759 263.448 150.398C263.406 150.041 263.361 149.567 263.308 148.985C263.258 148.401 263.21 147.764 263.17 147.071C263.047 145.047 262.984 143.664 262.984 142.924V136.984C262.984 136.447 263.2 136.055 263.631 135.807L266.556 134.117C266.987 133.869 267.203 134.012 267.203 134.548ZM266.493 152.549L263.785 154.113C263.374 154.35 263.168 154.724 263.168 155.235V159.871C263.168 160.435 263.373 160.597 263.785 160.359L266.493 158.796C266.904 158.559 267.109 158.172 267.109 157.636V152.921C267.109 152.438 266.904 152.313 266.493 152.549Z" fill="#E7216E"/>
<path d="M37.7366 187.045C36.2396 187.908 34.8977 187.91 34.1492 187.045C33.4008 186.179 33.4008 184.63 34.1492 182.902L54.2137 136.563C54.9622 134.833 56.3041 133.284 57.801 132.419C59.3004 131.553 60.6423 131.553 61.3908 132.419L81.4552 155.589C82.2037 156.453 82.2037 158.002 81.4552 159.733C80.7068 161.461 79.3649 163.012 77.8679 163.876L37.7366 187.045Z" fill="#E7216E"/>
<path d="M56.9624 136.195L36.8967 182.534C36.2415 184.047 37.0602 184.993 38.3706 184.236L78.5007 161.067C79.8112 160.31 80.6311 158.418 79.9759 157.661L59.9102 134.491C59.2562 133.735 57.6176 134.683 56.9624 136.195Z" fill="#201323"/>
<path d="M61.146 142.802V148.742C61.146 149.764 61.0988 150.935 61.008 152.253C60.9147 153.572 60.8481 154.549 60.8069 155.185C60.7645 155.822 60.7246 156.344 60.6846 156.75C60.6422 157.158 60.6216 157.374 60.6216 157.4C60.5393 157.984 60.3043 158.389 59.9131 158.615L58.1594 159.628C57.7682 159.853 57.5333 159.721 57.4509 159.231C57.4509 159.205 57.4303 159.012 57.3916 158.651C57.3492 158.294 57.3032 157.821 57.2511 157.238C57.2014 156.654 57.153 156.017 57.113 155.324C56.9907 153.301 56.9277 151.918 56.9277 151.176V145.236C56.9277 144.699 57.1433 144.307 57.5745 144.057L60.4993 142.368C60.9317 142.121 61.146 142.265 61.146 142.802ZM60.4375 160.802L57.7295 162.366C57.3189 162.603 57.1142 162.977 57.1142 163.489V168.125C57.1142 168.688 57.3189 168.85 57.7295 168.613L60.4375 167.049C60.8481 166.812 61.054 166.425 61.054 165.889V161.174C61.054 160.69 60.8481 160.565 60.4375 160.802Z" fill="#E7216E"/>
<defs>
<linearGradient id="paint0_linear_3017_21081" x1="177.423" y1="307.836" x2="183.343" y2="307.836" gradientUnits="userSpaceOnUse">
<stop stop-color="#B3AA9C"/>
<stop offset="1" stop-color="#E6DDCE"/>
</linearGradient>
</defs>
</svg>
