<svg width="192" height="161" viewBox="0 0 192 161" fill="none" xmlns="http://www.w3.org/2000/svg">
<g clip-path="url(#clip0_9307_149323)">
<path d="M42.7074 77.1606L18.6211 53.0742L13.4096 58.2857L37.4959 82.3721L42.7074 77.1606Z" fill="#E6E6E6"/>
<path d="M18.6168 82.3525L42.7031 58.2661L37.4916 53.0546L13.4053 77.141L18.6168 82.3525Z" fill="#E6E6E6"/>
<path d="M68.6757 25.9545L53.8242 11.103L50.6109 14.3163L65.4624 29.1678L68.6757 25.9545Z" fill="#E6E6E6"/>
<path d="M53.8321 29.1517L68.6836 14.3003L65.4703 11.087L50.6188 25.9384L53.8321 29.1517Z" fill="#E6E6E6"/>
<path d="M49.2151 104.771L39.0352 94.5913L36.8479 96.7785L47.0279 106.959L49.2151 104.771Z" fill="#E6E6E6"/>
<path d="M39.0153 106.994L49.1953 96.814L47.0081 94.6268L36.8281 104.807L39.0153 106.994Z" fill="#E6E6E6"/>
<path d="M147.505 88.7662L142.375 83.6357L141.268 84.7428L146.398 89.8733L147.505 88.7662Z" fill="#E6E6E6"/>
<path d="M142.354 89.8805L147.484 84.75L146.377 83.6429L141.247 88.7734L142.354 89.8805Z" fill="#E6E6E6"/>
<path d="M130.426 7.13846L123.297 0.00976562L121.758 1.54892L128.886 8.67761L130.426 7.13846Z" fill="#E6E6E6"/>
<path d="M123.281 8.68143L130.41 1.55273L128.871 0.0135844L121.742 7.14228L123.281 8.68143Z" fill="#E6E6E6"/>
<path d="M172.016 39.5878L147.93 15.5015L142.718 20.713L166.805 44.7993L172.016 39.5878Z" fill="#E6E6E6"/>
<path d="M147.921 44.79L172.008 20.7036L166.796 15.4921L142.71 39.5784L147.921 44.79Z" fill="#E6E6E6"/>
<path d="M169.86 111.05H100.855C99.6326 111.05 98.6016 110.057 98.6016 108.797V8.28678C98.6016 7.06476 99.5945 6.03369 100.855 6.03369H169.86C171.082 6.03369 172.113 7.02658 172.113 8.28678V108.835C172.113 110.057 171.12 111.05 169.86 111.05ZM100.855 6.14826C99.6708 6.14826 98.7161 7.10295 98.7161 8.28678V108.835C98.7161 110.019 99.6708 110.974 100.855 110.974H169.86C171.044 110.974 171.999 110.019 171.999 108.835V8.28678C171.999 7.10295 171.044 6.14826 169.86 6.14826H100.855Z" fill="#E0E0E0"/>
<path d="M90.2772 111.05H21.2336C20.0115 111.05 18.9805 110.057 18.9805 108.797V8.28678C18.9805 7.06476 19.9734 6.03369 21.2336 6.03369H90.239C91.461 6.03369 92.4921 7.02658 92.4921 8.28678V108.835C92.5303 110.057 91.4992 111.05 90.2772 111.05ZM21.2336 6.14826C20.0497 6.14826 19.095 7.10295 19.095 8.28678V108.835C19.095 110.019 20.0497 110.974 21.2336 110.974H90.239C91.4228 110.974 92.3775 110.019 92.3775 108.835V8.28678C92.3775 7.10295 91.4228 6.14826 90.239 6.14826H21.2336Z" fill="#E0E0E0"/>
<path d="M191.283 134.383H0.34375V134.498H191.283V134.383Z" fill="#E0E0E0"/>
<path d="M26.2342 139.806H20.0859V139.92H26.2342V139.806Z" fill="#E0E0E0"/>
<path d="M85.8446 138.775H65.4141V138.889H85.8446V138.775Z" fill="#E0E0E0"/>
<path d="M40.4021 143.357H26.5781V143.472H40.4021V143.357Z" fill="#E0E0E0"/>
<path d="M161.345 138.736H144.848V138.851H161.345V138.736Z" fill="#E0E0E0"/>
<path d="M167.148 138.736H164.742V138.851H167.148V138.736Z" fill="#E0E0E0"/>
<path d="M141.677 141.104H121.094V141.219H141.677V141.104Z" fill="#E0E0E0"/>
<path d="M98.4503 161C132.617 161 160.315 158.897 160.315 156.303C160.315 153.709 132.617 151.606 98.4503 151.606C64.2835 151.606 36.5859 153.709 36.5859 156.303C36.5859 158.897 64.2835 161 98.4503 161Z" fill="#F5F5F5"/>
<path d="M62.2462 81.7199L52.3633 71.8369L50.2301 73.9701L60.113 83.8531L62.2462 81.7199Z" fill="#2191FB"/>
<path opacity="0.5" d="M62.2462 81.7199L52.3633 71.8369L50.2301 73.9701L60.113 83.8531L62.2462 81.7199Z" fill="white"/>
<path d="M52.3514 83.8312L62.2344 73.9482L60.1012 71.815L50.2182 81.698L52.3514 83.8312Z" fill="#2191FB"/>
<path opacity="0.5" d="M52.3514 83.8312L62.2344 73.9482L60.1012 71.815L50.2182 81.698L52.3514 83.8312Z" fill="white"/>
<path d="M104.265 18.3501L92.4375 6.52295L89.8723 9.0882L101.699 20.9154L104.265 18.3501Z" fill="#2191FB"/>
<path opacity="0.5" d="M104.265 18.3501L92.4375 6.52295L89.8723 9.0882L101.699 20.9154L104.265 18.3501Z" fill="white"/>
<path d="M92.4463 20.898L104.273 9.0708L101.708 6.50555L89.881 18.3327L92.4463 20.898Z" fill="#2191FB"/>
<path opacity="0.5" d="M92.4463 20.898L104.273 9.0708L101.708 6.50555L89.881 18.3327L92.4463 20.898Z" fill="white"/>
<path d="M148.432 71.7062L132.555 55.8286L129.125 59.2579L145.003 75.1355L148.432 71.7062Z" fill="#2191FB"/>
<path opacity="0.5" d="M148.432 71.7062L132.555 55.8286L129.125 59.2579L145.003 75.1355L148.432 71.7062Z" fill="white"/>
<path d="M132.544 75.151L148.422 59.2734L144.993 55.8441L129.115 71.7216L132.544 75.151Z" fill="#2191FB"/>
<path opacity="0.5" d="M132.544 75.151L148.422 59.2734L144.993 55.8441L129.115 71.7216L132.544 75.151Z" fill="white"/>
<path d="M143.482 41.5544C147.486 35.5801 145.888 27.4913 139.914 23.4876C133.94 19.4839 125.851 21.0813 121.847 27.0556C117.843 33.0299 119.441 41.1187 125.415 45.1224C131.389 49.1261 139.478 47.5287 143.482 41.5544Z" fill="#2191FB"/>
<g opacity="0.3">
<path d="M143.482 41.5544C147.486 35.5801 145.888 27.4913 139.914 23.4876C133.94 19.4839 125.851 21.0813 121.847 27.0556C117.843 33.0299 119.441 41.1187 125.415 45.1224C131.389 49.1261 139.478 47.5287 143.482 41.5544Z" fill="white"/>
</g>
<path d="M125.485 41.396L125.523 44.7565L121.398 45.7112L122.009 41.5869L125.485 41.396Z" fill="#2191FB"/>
<g opacity="0.3">
<path d="M125.485 41.396L125.523 44.7565L121.398 45.7112L122.009 41.5869L125.485 41.396Z" fill="white"/>
</g>
<path d="M117.274 31.849C117.197 31.849 117.121 31.7727 117.121 31.6963C117.579 27.4574 120.329 23.4859 124.148 21.5765C124.224 21.5383 124.3 21.5765 124.339 21.6529C124.377 21.7293 124.339 21.8056 124.262 21.8438C120.52 23.715 117.847 27.6102 117.388 31.7345C117.388 31.7727 117.35 31.849 117.274 31.849Z" fill="#2191FB"/>
<path d="M117.198 35.7056C117.122 35.7056 117.084 35.6674 117.046 35.5911C116.893 34.9419 116.855 34.2545 117.007 33.6053C117.007 33.5289 117.084 33.4907 117.16 33.4907C117.237 33.4907 117.275 33.5671 117.275 33.6435C117.16 34.2545 117.198 34.9037 117.313 35.5147C117.351 35.5911 117.313 35.6674 117.198 35.7056Z" fill="#2191FB"/>
<path d="M132.661 31.7725V38.0353H131.21L128.461 34.7129V38.0353H126.742V31.7725H128.193L130.943 35.0948V31.7725H132.661Z" fill="white"/>
<path d="M133.578 34.9037C133.578 33.0325 135.067 31.6577 137.053 31.6577C139.039 31.6577 140.528 33.0325 140.528 34.9037C140.528 36.7749 139.039 38.1497 137.053 38.1497C135.067 38.1497 133.578 36.7749 133.578 34.9037ZM138.772 34.9037C138.772 33.8344 138.046 33.1089 137.091 33.1089C136.137 33.1089 135.411 33.8344 135.411 34.9037C135.411 35.9729 136.137 36.6985 137.091 36.6985C138.008 36.6985 138.772 35.9729 138.772 34.9037Z" fill="white"/>
<path d="M55.9916 58.154C60.9571 53.6773 61.3533 46.0228 56.8765 41.0574C52.3998 36.0919 44.7453 35.6957 39.7799 40.1724C34.8144 44.6492 34.4182 52.3036 38.8949 57.2691C43.3717 62.2346 51.0261 62.6308 55.9916 58.154Z" fill="#2191FB"/>
<path d="M56.9023 48.3456L58.9645 46.0161L62.4014 47.9255L59.4227 50.3695L56.9023 48.3456Z" fill="#2191FB"/>
<path d="M47.8899 55.3341C47.4317 55.3341 47.088 55.1813 46.7825 54.914C46.477 54.6467 46.3242 54.303 46.3242 53.8829C46.3242 53.4629 46.477 53.1192 46.7443 52.8519C47.0498 52.5846 47.3935 52.4318 47.8517 52.4318C48.31 52.4318 48.6537 52.5846 48.9592 52.8519C49.2647 53.1192 49.3792 53.4629 49.3792 53.8829C49.3792 54.303 49.2265 54.6467 48.921 54.914C48.7301 55.1813 48.3482 55.3341 47.8899 55.3341ZM48.921 51.2862H46.9352L46.4388 43.9541H49.4174L48.921 51.2862Z" fill="white"/>
<path d="M33.6059 46.9327C33.5295 46.9327 33.4531 46.8563 33.4531 46.7799C33.8732 42.8466 36.4318 39.1423 39.9833 37.3475C40.0596 37.3093 40.136 37.3475 40.1742 37.4239C40.2124 37.5003 40.1742 37.5766 40.0978 37.6148C36.6227 39.3333 34.1405 42.9611 33.7204 46.8181C33.7204 46.8563 33.6823 46.9327 33.6059 46.9327Z" fill="#2191FB"/>
<path d="M33.5304 50.5221C33.454 50.5221 33.4159 50.4839 33.3777 50.4075C33.2249 49.7965 33.2249 49.1855 33.3395 48.5745C33.3395 48.4981 33.4159 48.46 33.4922 48.46C33.5686 48.46 33.6068 48.5363 33.6068 48.6127C33.4922 49.1855 33.5304 49.7965 33.645 50.3312C33.6832 50.4075 33.645 50.4839 33.5304 50.5221Z" fill="#2191FB"/>
<path d="M122.125 102.152C122.125 95.1257 111.968 78.7812 111.968 78.7812L88.0619 79.3541L76.2237 79.6978L69.9991 96.424L74.1615 134.192L67.0586 153.515H124.035L118.765 135.49C118.765 135.528 122.125 109.179 122.125 102.152Z" fill="#2191FB"/>
<g opacity="0.2">
<path d="M71.832 140.569C77.6366 139.882 83.2502 137.744 87.069 133.314C90.8878 128.884 92.1862 125.103 94.7447 119.833C94.9739 120.368 98.5253 125.027 100.931 127.624C103.337 130.221 106.316 132.244 109.485 133.848C112.693 135.452 116.092 136.674 119.567 137.476L118.689 134.116L95.6994 109.064L72.9395 136.865L71.832 140.569Z" fill="black"/>
</g>
<path d="M97.3039 101.427C97.3039 101.427 93.9433 96.6152 93.4087 95.4314C92.8741 94.2476 92.8359 90.276 92.3776 90.4288C91.9194 90.5815 90.5446 91.689 90.5446 92.3L83.2889 81.0728C83.2889 81.0728 82.2197 81.1109 82.1433 81.9129C82.1433 81.9129 80.6158 82.1802 81.074 84.7388C81.5323 87.2974 82.1051 87.7174 82.1051 87.7174C82.1051 87.7174 81.876 88.9395 82.9452 91.0016C84.0145 93.0637 85.733 97.5699 85.733 97.5699C85.733 97.5699 89.3226 106.811 91.6139 108.797C93.9052 110.783 94.5544 110.745 94.5544 110.745L97.1511 114.296L102.765 108.492L97.3039 101.427Z" fill="#FDBBB5"/>
<path d="M92.1098 103.26L71.4502 118.802L72.0612 103.985L58.3517 99.7466C58.1608 108.644 55.3731 139.271 67.0204 139.882C78.4767 140.455 96.7305 109.79 96.7305 109.79L92.1098 103.26Z" fill="#FDBBB5"/>
<path d="M76.224 79.6978C76.224 79.6978 67.4027 79.4687 62.0564 88.3283C58.734 93.8655 54.1133 105.78 54.1133 105.78L72.4816 111.088C72.8253 110.706 76.224 79.6978 76.224 79.6978Z" fill="#2191FB"/>
<path d="M121.629 105.322L121.362 118.84L100.397 105.207C99.9383 105.818 97.0742 114.22 97.0742 114.22C97.0742 114.22 115.595 138.201 126.212 138.24C135.224 138.24 135.148 126.592 135.3 118.458C135.415 111.241 134.307 102.954 134.307 102.954L121.629 105.322Z" fill="#FDBBB5"/>
<path opacity="0.3" d="M96.5033 113.456C96.5033 113.456 99.2146 109.522 99.2528 109.37C99.291 109.217 102.728 106.735 102.728 106.735L101.124 105.704C101.124 105.704 97.9544 106.926 97.7635 107.078C97.5725 107.231 95.2812 111.814 95.2812 111.814L96.5033 113.456Z" fill="black"/>
<path d="M95.6249 98.1808C95.6249 98.1808 98.9855 93.3691 99.5201 92.1853C100.055 91.0015 100.093 87.0299 100.551 87.1827C101.009 87.3354 102.384 88.4429 102.384 89.0539L109.64 77.8267C109.64 77.8267 110.709 77.8648 110.786 78.6668C110.786 78.6668 112.313 78.9341 111.855 81.4927C111.397 84.0513 110.824 84.4713 110.824 84.4713C110.824 84.4713 111.053 85.6934 109.984 87.7555C108.914 89.8176 107.196 94.3238 107.196 94.3238C107.196 94.3238 103.606 103.565 101.315 105.551C99.0236 107.537 98.3745 107.499 98.3745 107.499L95.3194 111.928L90.1641 105.246L95.6249 98.1808Z" fill="#FDBBB5"/>
<path d="M100.361 91.9943C101.125 90.925 101.889 89.8176 102.652 88.7101C102.729 88.5955 102.805 88.481 102.881 88.3664C102.996 88.2137 102.729 88.0609 102.652 88.2137C102.003 89.1302 101.392 90.0467 100.743 90.9632C100.552 91.2687 100.323 91.536 100.132 91.8415C99.9792 92.0324 100.246 92.147 100.361 91.9943Z" fill="#FF807B"/>
<path d="M110.978 84.6621C110.902 84.0893 110.329 83.7838 109.794 83.8602C108.993 83.9748 108.534 84.8531 108.191 85.5023C107.045 87.4499 105.899 89.3974 104.754 91.345C104.677 91.4978 104.906 91.6505 104.983 91.4978C105.861 89.9703 106.778 88.4427 107.656 86.9152C108.076 86.2279 108.42 85.4641 108.916 84.8149C109.145 84.5094 109.451 84.2039 109.833 84.1657C110.176 84.1275 110.635 84.3185 110.673 84.7003C110.711 84.8531 110.978 84.8531 110.978 84.6621Z" fill="#FF807B"/>
<path d="M103.99 89.7795C105.785 87.1445 107.541 84.4713 109.145 81.7218C109.718 80.7671 110.291 79.8124 110.787 78.8195C110.864 78.6668 110.635 78.514 110.558 78.6668C108.802 82.1419 106.549 85.426 104.41 88.672C104.181 88.9775 103.99 89.3212 103.761 89.6267C103.608 89.8176 103.875 89.9322 103.99 89.7795Z" fill="#FF807B"/>
<path d="M92.4175 94.6677C91.6537 93.5984 90.89 92.491 90.1262 91.3835C90.0498 91.269 89.9734 91.1544 89.8971 91.0398C89.7825 90.8871 89.5534 91.0398 89.6679 91.1926C90.3171 92.1091 90.9281 93.0256 91.5773 93.9421C91.7683 94.2476 91.9974 94.5149 92.1883 94.8204C92.2647 94.9732 92.4938 94.8204 92.4175 94.6677Z" fill="#FF807B"/>
<path d="M82.2196 87.9085C82.2577 87.5266 82.6396 87.3738 82.9833 87.3738C83.4034 87.3738 83.7089 87.6793 83.938 87.9848C84.4345 88.634 84.8163 89.3978 85.2364 90.1234C86.1147 91.6509 87.0312 93.1784 87.9096 94.7059C87.9859 94.8587 88.2532 94.7059 88.1387 94.5532C86.993 92.6056 85.8474 90.658 84.7018 88.7104C84.3199 88.0994 83.8998 87.2211 83.1361 87.0683C82.5633 86.9538 81.9523 87.2975 81.9141 87.8703C81.9141 88.0994 82.2196 88.0994 82.2196 87.9085Z" fill="#FF807B"/>
<path d="M89.168 92.5674C86.5712 89.245 84.2799 85.6936 82.3705 81.9512C82.2942 81.7984 82.0269 81.913 82.1414 82.1039C84.0508 85.8845 86.3421 89.4742 88.977 92.7965C89.0916 92.9111 89.2826 92.7201 89.168 92.5674Z" fill="#FF807B"/>
<path opacity="0.3" d="M89.2091 105.36C89.2091 105.36 91.3476 103.909 91.5003 103.565C91.6531 103.222 95.3573 98.5246 95.3573 98.5246L94.5936 97.3408L88.4453 103.756L89.2091 105.36Z" fill="black"/>
<path d="M71.337 118.535C69.0075 119.871 66.9836 121.704 65.3797 123.843C65.2651 123.996 65.5324 124.148 65.6088 123.996C67.1745 121.895 69.1603 120.1 71.4516 118.802C71.6425 118.688 71.4898 118.42 71.337 118.535Z" fill="#FF807B"/>
<path d="M121.093 118.802C123.117 119.91 124.835 121.59 125.981 123.614C126.057 123.767 126.325 123.614 126.21 123.461C125.026 121.399 123.308 119.719 121.208 118.573C121.055 118.458 120.902 118.726 121.093 118.802Z" fill="#FF807B"/>
<path d="M111.969 78.7816C111.969 78.7816 121.401 78.0178 127.168 86.6101C130.757 91.9946 135.34 103.795 135.34 103.795L117.2 109.943C116.857 109.599 111.969 78.7816 111.969 78.7816Z" fill="#2191FB"/>
<path d="M72.0226 111.356C71.5262 105.207 71.6789 98.9827 72.519 92.8344C72.5572 92.6435 72.2517 92.5671 72.2517 92.7581C71.4116 98.9063 71.2588 105.131 71.7553 111.356C71.7171 111.546 72.0226 111.546 72.0226 111.356Z" fill="#263238"/>
<path d="M121.247 109.026C121.705 103.756 121.285 98.41 120.025 93.2546C119.987 93.0637 119.719 93.1401 119.758 93.331C121.018 98.4482 121.438 103.756 120.98 109.026C120.941 109.217 121.247 109.217 121.247 109.026Z" fill="#263238"/>
<path d="M120.141 93.5217C120.523 93.0253 120.905 92.5288 121.287 92.0324C121.325 91.956 121.363 91.8796 121.287 91.8415C121.249 91.8033 121.134 91.7651 121.096 91.8415C120.714 92.3379 120.332 92.8343 119.95 93.3308C119.912 93.4072 119.874 93.4835 119.95 93.5217C119.989 93.5981 120.103 93.5981 120.141 93.5217Z" fill="#263238"/>
<path d="M86.0776 143.624C91.8822 142.021 97.8013 140.76 103.759 139.844C103.95 139.806 103.873 139.538 103.682 139.576C97.7249 140.493 91.8058 141.791 86.0012 143.357C85.8103 143.395 85.8867 143.663 86.0776 143.624Z" fill="#263238"/>
<path d="M72.481 46.9326C71.1826 51.2478 69.8078 54.2647 67.2111 57.2433C66.2945 58.2744 65.2635 59.3437 65.1871 60.7184C65.1107 62.1696 66.2945 63.4298 67.6311 64.0026C68.9677 64.5372 70.4952 64.499 71.9463 64.4608C72.0609 66.0647 73.092 67.5922 74.5431 68.3178C75.9943 69.0052 77.8273 68.8906 79.1638 67.9741C79.393 69.8071 80.6914 71.4492 82.4098 72.0984C84.1283 72.7094 86.1904 72.2894 87.527 71.0292L89.36 61.7113L72.481 46.9326Z" fill="#263238"/>
<path d="M122.853 61.6736C122.662 60.4897 121.249 60.1079 120.141 59.6496C117.621 58.5803 116.055 55.9072 115.52 53.1577C114.948 50.4081 115.215 47.5441 115.406 44.7563C115.559 41.9304 114.948 39.2191 113.955 36.5841C112.962 33.9874 109.601 30.1686 106.775 31.3906L90.6602 68.0127C92.3022 70.5713 95.701 71.717 98.5269 70.6477C101.162 71.7933 104.522 70.8386 106.279 68.5092C109.105 69.2348 112.236 68.7001 114.719 67.0199C115.482 66.4852 116.246 65.5305 115.788 64.7286C117.659 65.3014 119.797 64.9959 121.478 63.8885C122.28 63.392 123.005 62.5901 122.853 61.6736Z" fill="#263238"/>
<path d="M104.942 79.6216C97.5333 77.8649 97.7242 72.3659 99.0226 67.2105L85.5805 56.938C86.8789 63.5445 88.9792 75.1918 84.3203 79.6216C84.3203 79.6216 95.6239 85.6171 100.474 83.8986C105.324 82.2183 104.942 79.6216 104.942 79.6216Z" fill="#FDBBB5"/>
<path opacity="0.2" d="M91.3862 66.2557C91.6917 69.1961 95.5487 72.3275 98.3746 72.7094C98.4892 71.4874 98.6801 70.2654 99.0238 69.0434L91.539 62.666C91.2717 63.8498 91.2335 65.0718 91.3862 66.2557Z" fill="black"/>
<path d="M81.3436 45.8637C82.2983 56.289 82.4511 60.7187 87.7974 65.9123C95.8168 73.7408 108.152 70.3039 110.29 59.764C112.199 50.2935 110.328 34.8656 100.208 31.085C90.0505 27.3044 80.3508 35.4384 81.3436 45.8637Z" fill="#FDBBB5"/>
<path d="M94.0217 48.995C93.869 50.1025 94.3272 51.0954 94.9764 51.2481C95.6638 51.4009 96.313 50.5989 96.4657 49.4915C96.6185 48.384 96.1602 47.3912 95.511 47.2384C94.8236 47.0857 94.1745 47.8876 94.0217 48.995Z" fill="#263238"/>
<path d="M104.291 49.4915C104.138 50.5608 104.597 51.5537 105.284 51.6683C105.971 51.821 106.621 51.0572 106.773 49.9498C106.926 48.8805 106.468 47.8877 105.78 47.7731C105.093 47.6585 104.406 48.4223 104.291 49.4915Z" fill="#263238"/>
<path d="M94.5933 44.9472C94.6697 45.0617 94.8224 45.0999 94.937 45.1381C97.1519 45.1763 98.1066 46.8184 98.1066 46.8566C98.2593 47.0857 98.5648 47.1621 98.7939 47.0093C99.0231 46.8566 99.0995 46.5129 98.9467 46.2837C98.9085 46.2074 97.6865 44.1452 94.937 44.0688C94.6697 44.0688 94.4405 44.298 94.4023 44.6035C94.4405 44.718 94.5169 44.8708 94.5933 44.9472Z" fill="#263238"/>
<path d="M108.075 43.5343C108.151 43.4579 108.19 43.3433 108.19 43.2288C108.151 42.9614 107.884 42.7705 107.617 42.7705C104.867 42.7705 103.798 44.5653 103.76 44.6417C103.645 44.8708 103.76 45.1382 103.989 45.2909C104.256 45.4437 104.524 45.3673 104.676 45.1382C104.714 45.0618 105.555 43.687 107.731 43.687C107.884 43.687 107.999 43.6488 108.075 43.5343Z" fill="#263238"/>
<path d="M101.276 48.1929C101.276 48.1929 102.231 52.3553 103.606 55.1049C103.835 55.6013 103.529 56.1741 102.995 56.2505C101.62 56.4796 100.207 55.7923 100.207 55.7923L101.276 48.1929Z" fill="#FF807B"/>
<path d="M95.3555 47.2001L97.8377 47.0474C97.8377 47.0856 96.1956 48.6131 95.3555 47.2001Z" fill="#263238"/>
<path d="M105.516 47.7729L107.998 47.6201C107.998 47.6201 106.394 49.1858 105.516 47.7729Z" fill="#263238"/>
<path d="M101.314 26.846C78.8215 21.2324 73.7425 40.4027 73.7425 40.4027C72.9788 44.1451 72.3678 48.8804 70.6875 52.2791L86.8792 65.263L83.9387 54.3795C89.1704 54.1504 102.613 33.5289 102.613 33.5289C102.613 33.5289 102.956 31.0467 102.613 34.2163L107.539 34.8273C110.097 29.9011 101.314 26.846 101.314 26.846Z" fill="#263238"/>
<path d="M79.7007 54.1503C80.5408 56.4797 82.2974 58.1982 84.0541 58.9619C86.689 60.1458 88.8658 55.9833 88.4457 53.0428C88.0256 50.4079 85.6198 48.3075 82.8703 48.3457C80.1207 48.4221 78.746 51.4389 79.7007 54.1503Z" fill="#FDBBB5"/>
<path opacity="0.2" d="M86.0382 55.3724C85.9618 55.3724 85.8854 55.296 85.8854 55.2196C86 54.2649 85.6945 53.272 85.0835 52.5083C84.4725 51.7445 83.5942 51.2481 82.6013 51.1335C82.5249 51.1335 82.4485 51.0572 82.4867 50.9808C82.4867 50.9044 82.5631 50.8662 82.6395 50.8662C83.6705 50.9808 84.6634 51.5154 85.3126 52.3174C85.9618 53.1193 86.2673 54.1886 86.1528 55.2196C86.1528 55.3342 86.1146 55.3724 86.0382 55.3724Z" fill="black"/>
<path d="M102.573 32.0776C102.458 36.0874 101.007 39.9443 98.4102 42.9994C98.4102 42.9994 105.742 39.1424 108.224 34.2543L102.573 32.0776Z" fill="#263238"/>
<path opacity="0.2" d="M98.985 48.804C98.9468 48.804 98.8704 48.7658 98.8704 48.7277C98.8323 48.6513 98.8705 48.5749 98.9468 48.5367C99.5578 48.2312 100.016 47.6584 100.169 46.971C100.169 46.8946 100.245 46.8564 100.322 46.8564C100.398 46.8564 100.436 46.9328 100.436 47.0092C100.283 47.773 99.7488 48.4603 99.0614 48.7658C99.0614 48.804 99.0232 48.804 98.985 48.804Z" fill="black"/>
<path d="M96.7304 58.4274C97.9906 58.3892 99.2508 58.6183 100.435 59.0766C100.778 59.1912 100.931 58.6565 100.587 58.542C99.3654 58.0837 98.0288 57.8546 96.7304 57.8928C96.3867 57.8546 96.3867 58.4274 96.7304 58.4274Z" fill="#263238"/>
<path d="M99.2496 31.1612C95.9655 34.4836 92.3758 37.424 88.4424 39.9826C86.5712 41.2046 84.6619 42.2739 82.6761 43.305C80.9194 44.2215 79.1628 45.138 77.5589 46.2454C75.8405 47.4674 74.3129 48.9186 73.3201 50.7898C73.2437 50.9425 73.4728 51.0953 73.5492 50.9425C75.4204 47.3529 79.1628 45.4435 82.5997 43.6486C86.4949 41.5865 90.2373 39.257 93.6742 36.5075C95.6981 34.9036 97.6075 33.1852 99.4024 31.3522C99.5933 31.2376 99.4024 31.0085 99.2496 31.1612Z" fill="black"/>
<path d="M100.663 33.1851C96.3474 37.8441 91.2685 41.5483 85.6548 44.4887C83.1726 45.7871 80.6522 47.0855 78.5901 48.9949C76.5279 50.8661 75.1914 53.3483 74.7331 56.0979C74.1985 59.2674 74.6949 62.5134 75.726 65.5303C75.8024 65.7212 76.0697 65.6448 75.9933 65.4539C74.0839 60.0694 74.1603 53.6538 78.5137 49.4532C80.5377 47.4674 83.0963 46.169 85.5785 44.8706C88.2134 43.4577 90.8102 41.9683 93.216 40.1735C95.9656 38.1496 98.5242 35.8965 100.854 33.3761C100.968 33.2615 100.777 33.0324 100.663 33.1851Z" fill="black"/>
<path d="M107.688 34.1019C112.615 37.3479 112.653 43.9162 112.5 49.1479C112.5 49.3389 112.767 49.3389 112.805 49.1479C112.958 43.7634 112.882 37.1569 107.841 33.8346C107.688 33.7582 107.536 33.9874 107.688 34.1019Z" fill="black"/>
</g>
<defs>
<clipPath id="clip0_9307_149323">
<rect width="190.939" height="161" fill="white" transform="translate(0.34375)"/>
</clipPath>
</defs>
</svg>
