<svg width="12" height="14" viewBox="0 0 12 14" fill="none" xmlns="http://www.w3.org/2000/svg">
<path fill-rule="evenodd" clip-rule="evenodd" d="M11.5242 3.9594L8.46033 0.876868L8.13339 0.746094H0.922129L0.455078 1.21314V6.3507H1.38918V1.6802H6.99379V4.94955L7.46084 5.4166H10.7302V6.3507H11.6643V4.29568L11.5242 3.9594ZM7.92789 4.4825V1.6802L10.7302 4.4825H7.92789ZM0.922129 7.2848L0.455078 7.75185V13.3565L0.922129 13.8235H11.1972L11.6643 13.3565V7.75185L11.1972 7.2848H0.922129ZM10.7302 11.9553V12.8894H1.38918V8.2189H10.7302V11.9553ZM3.25738 11.0212H2.95847V11.9553H2.32328V9.15301H3.31343C4.014 9.15301 4.36896 9.48928 4.36896 10.0871C4.37077 10.2142 4.34498 10.3401 4.29337 10.4562C4.24177 10.5723 4.16557 10.6759 4.07005 10.7597C3.83856 10.9401 3.55066 11.0328 3.25738 11.0212ZM3.20134 9.66676H2.95847V10.5355H3.20134C3.53761 10.5355 3.70575 10.386 3.70575 10.0964C3.70575 9.80688 3.53761 9.66676 3.20134 9.66676ZM6.99379 11.563C7.13174 11.4271 7.23961 11.2638 7.31042 11.0835C7.38122 10.9033 7.41337 10.7102 7.40479 10.5168C7.40479 9.58269 6.90972 9.15301 5.91023 9.15301H4.92008V11.9553H5.91023C6.10782 11.9649 6.30534 11.9351 6.49134 11.8678C6.67735 11.8004 6.84813 11.6968 6.99379 11.563ZM5.54593 11.4416V9.66676H5.85418C5.97332 9.65919 6.09276 9.676 6.20518 9.71615C6.31761 9.7563 6.42066 9.81896 6.50805 9.90029C6.58768 9.98311 6.64948 10.0814 6.68965 10.189C6.72981 10.2967 6.74749 10.4114 6.74158 10.5261C6.75557 10.7724 6.67163 11.0141 6.50805 11.1987C6.42254 11.2805 6.32136 11.3442 6.2106 11.386C6.09984 11.4277 5.98178 11.4466 5.86352 11.4416H5.54593ZM9.70268 10.8718H8.7966V11.9553H8.16141V9.15301H9.78675V9.66676H8.7966V10.358H9.70268V10.8718Z" fill="#2191FB"/>
</svg>
