<svg width="36" height="36" viewBox="0 0 36 36" fill="none" xmlns="http://www.w3.org/2000/svg">
<path d="M29.1673 20.8364C28.7253 20.8364 28.3014 21.012 27.9888 21.3246C27.6762 21.6371 27.5007 22.0611 27.5007 22.5031V23.1364L25.034 20.6697C24.163 19.8057 22.9859 19.3208 21.759 19.3208C20.5321 19.3208 19.3549 19.8057 18.484 20.6697L17.3173 21.8364L13.184 17.7031C12.3008 16.8624 11.1283 16.3936 9.90898 16.3936C8.68971 16.3936 7.51712 16.8624 6.63398 17.7031L4.16732 20.1698V10.8364C4.16732 10.3944 4.34291 9.97047 4.65547 9.6579C4.96803 9.34534 5.39196 9.16975 5.83398 9.16975H17.5007C17.9427 9.16975 18.3666 8.99415 18.6792 8.68159C18.9917 8.36903 19.1673 7.94511 19.1673 7.50308C19.1673 7.06106 18.9917 6.63713 18.6792 6.32457C18.3666 6.01201 17.9427 5.83642 17.5007 5.83642H5.83398C4.5079 5.83642 3.23613 6.3632 2.29845 7.30088C1.36077 8.23856 0.833984 9.51033 0.833984 10.8364V30.8364C0.833984 32.1625 1.36077 33.4343 2.29845 34.372C3.23613 35.3096 4.5079 35.8364 5.83398 35.8364H25.834C27.1601 35.8364 28.4318 35.3096 29.3695 34.372C30.3072 33.4343 30.834 32.1625 30.834 30.8364V22.5031C30.834 22.0611 30.6584 21.6371 30.3458 21.3246C30.0333 21.012 29.6093 20.8364 29.1673 20.8364ZM5.83398 32.5031C5.39196 32.5031 4.96803 32.3275 4.65547 32.0149C4.34291 31.7024 4.16732 31.2784 4.16732 30.8364V24.8864L9.00065 20.0531C9.2455 19.8197 9.57076 19.6896 9.90898 19.6896C10.2472 19.6896 10.5725 19.8197 10.8173 20.0531L16.1007 25.3364L23.2673 32.5031H5.83398ZM27.5007 30.8364C27.4983 31.1555 27.393 31.4652 27.2006 31.7198L19.684 24.1698L20.8507 23.0031C20.9701 22.8811 21.1128 22.7842 21.2702 22.7181C21.4276 22.652 21.5966 22.6179 21.7673 22.6179C21.9381 22.6179 22.1071 22.652 22.2645 22.7181C22.4219 22.7842 22.5645 22.8811 22.684 23.0031L27.5007 27.8531V30.8364ZM35.3506 6.31975L30.3506 1.31975C30.1921 1.16801 30.0052 1.04907 29.8006 0.969749C29.3949 0.803052 28.9398 0.803052 28.534 0.969749C28.3294 1.04907 28.1425 1.16801 27.984 1.31975L22.984 6.31975C22.8286 6.47515 22.7053 6.65963 22.6212 6.86267C22.5371 7.0657 22.4938 7.28332 22.4938 7.50308C22.4938 7.94692 22.6701 8.37258 22.984 8.68642C23.2978 9.00026 23.7235 9.17657 24.1673 9.17657C24.6112 9.17657 25.0368 9.00026 25.3506 8.68642L27.5007 6.51975V15.8364C27.5007 16.2784 27.6762 16.7024 27.9888 17.0149C28.3014 17.3275 28.7253 17.5031 29.1673 17.5031C29.6093 17.5031 30.0333 17.3275 30.3458 17.0149C30.6584 16.7024 30.834 16.2784 30.834 15.8364V6.51975L32.984 8.68642C33.1389 8.84263 33.3233 8.96662 33.5264 9.05123C33.7295 9.13585 33.9473 9.17941 34.1673 9.17941C34.3873 9.17941 34.6052 9.13585 34.8083 9.05123C35.0114 8.96662 35.1957 8.84263 35.3506 8.68642C35.5069 8.53148 35.6309 8.34714 35.7155 8.14404C35.8001 7.94094 35.8436 7.7231 35.8436 7.50308C35.8436 7.28306 35.8001 7.06522 35.7155 6.86212C35.6309 6.65902 35.5069 6.47469 35.3506 6.31975Z" fill="#E2E2E2"/>
</svg>
