<svg width="345" height="226" viewBox="0 0 345 226" fill="none" xmlns="http://www.w3.org/2000/svg">
<rect x="0.5" width="344" height="226" rx="10" fill="#FAFAFA"/>
<path d="M185.003 80.2471H153.753C152.51 80.2471 151.317 80.7409 150.438 81.62C149.559 82.4991 149.065 83.6914 149.065 84.9346V106.81C149.062 107.485 149.212 108.153 149.503 108.763C149.614 108.995 149.78 109.196 149.987 109.349C150.194 109.502 150.436 109.601 150.69 109.638H150.909C151.131 109.637 151.35 109.59 151.552 109.498C151.754 109.407 151.935 109.273 152.081 109.106L163.019 96.7158L169.065 104.263C169.197 104.426 169.36 104.56 169.544 104.659C169.729 104.758 169.931 104.818 170.14 104.837C170.348 104.856 170.558 104.833 170.757 104.769C170.957 104.705 171.141 104.602 171.3 104.466L177.19 99.4971L182.409 103.966C182.632 104.157 182.903 104.282 183.194 104.327C183.484 104.371 183.781 104.332 184.05 104.216C185.227 103.691 186.538 103.549 187.8 103.81C188.03 103.856 188.267 103.851 188.494 103.794C188.721 103.737 188.933 103.629 189.113 103.479C189.293 103.329 189.437 103.14 189.534 102.927C189.632 102.714 189.68 102.481 189.675 102.247V84.9346C189.675 83.6941 189.183 82.5041 188.307 81.6255C187.432 80.7469 186.243 80.2512 185.003 80.2471Z" fill="#D6D6D6"/>
<path d="M184.448 101.595L178.198 96.2512C177.915 96.0092 177.555 95.8761 177.183 95.8761C176.81 95.8761 176.45 96.0092 176.167 96.2512L170.526 101.079L164.276 93.2669C164.132 93.1069 163.956 92.9786 163.76 92.8898C163.564 92.8011 163.351 92.7539 163.136 92.7512C162.909 92.747 162.683 92.7924 162.476 92.8841C162.268 92.9759 162.083 93.1118 161.933 93.2825L149.745 107.064C149.548 107.289 149.419 107.567 149.375 107.863C149.33 108.159 149.372 108.462 149.495 108.736C149.865 109.558 150.464 110.256 151.221 110.747C151.977 111.237 152.859 111.499 153.761 111.501H178.761C179.175 111.501 179.573 111.337 179.866 111.044C180.159 110.751 180.323 110.353 180.323 109.939C180.323 109.118 180.484 108.305 180.797 107.546C181.111 106.787 181.571 106.098 182.151 105.517C182.698 104.967 183.345 104.527 184.058 104.22C184.303 104.116 184.517 103.951 184.68 103.742C184.844 103.532 184.951 103.283 184.992 103.021C185.032 102.758 185.005 102.489 184.913 102.239C184.82 101.99 184.666 101.768 184.464 101.595H184.448Z" fill="#E2E2E2"/>
<path d="M192.11 115.47C190.643 116.937 188.654 117.761 186.579 117.761C184.505 117.761 182.515 116.937 181.048 115.47C179.581 114.003 178.757 112.013 178.757 109.939C178.757 107.864 179.581 105.874 181.048 104.407C181.74 103.741 182.551 103.211 183.439 102.845C184.873 102.203 186.469 102.008 188.016 102.287C189.563 102.566 190.99 103.305 192.11 104.407C192.838 105.133 193.415 105.995 193.809 106.944C194.203 107.894 194.406 108.911 194.406 109.939C194.406 110.966 194.203 111.984 193.809 112.933C193.415 113.882 192.838 114.744 192.11 115.47Z" fill="white"/>
<path d="M186.578 119.31C184.723 119.312 182.91 118.763 181.368 117.734C179.825 116.705 178.622 115.242 177.911 113.529C177.201 111.816 177.014 109.931 177.374 108.112C177.735 106.293 178.627 104.622 179.937 103.31C180.808 102.438 181.842 101.747 182.98 101.275C184.118 100.803 185.338 100.561 186.57 100.561C187.802 100.561 189.022 100.803 190.16 101.275C191.298 101.747 192.332 102.438 193.203 103.31C194.074 104.181 194.766 105.215 195.238 106.353C195.709 107.491 195.952 108.711 195.952 109.943C195.952 111.175 195.709 112.395 195.238 113.533C194.766 114.671 194.074 115.705 193.203 116.576C191.444 118.329 189.061 119.312 186.578 119.31ZM186.578 103.685C184.925 103.688 183.341 104.345 182.171 105.513C181.588 106.094 181.125 106.784 180.809 107.544C180.493 108.305 180.331 109.12 180.331 109.943C180.331 110.766 180.493 111.581 180.809 112.341C181.125 113.102 181.588 113.792 182.171 114.373C183.346 115.545 184.939 116.203 186.599 116.202C188.259 116.2 189.85 115.54 191.023 114.365C192.196 113.19 192.854 111.597 192.852 109.937C192.851 108.277 192.19 106.686 191.015 105.513C190.164 104.653 189.076 104.065 187.89 103.826C187.459 103.733 187.019 103.686 186.578 103.685Z" fill="#D6D6D6"/>
<path d="M181.044 117.03C180.734 117.032 180.43 116.941 180.171 116.77C179.913 116.598 179.711 116.353 179.592 116.067C179.473 115.78 179.442 115.464 179.503 115.16C179.564 114.856 179.715 114.577 179.935 114.358L190.982 103.311C191.281 103.055 191.665 102.922 192.058 102.937C192.452 102.952 192.825 103.115 193.103 103.393C193.381 103.671 193.544 104.044 193.559 104.438C193.575 104.831 193.441 105.215 193.185 105.514L182.138 116.561C181.85 116.856 181.456 117.024 181.044 117.03Z" fill="#D6D6D6"/>
<path d="M172.511 92.7451C174.237 92.7451 175.636 91.346 175.636 89.6201C175.636 87.8942 174.237 86.4951 172.511 86.4951C170.785 86.4951 169.386 87.8942 169.386 89.6201C169.386 91.346 170.785 92.7451 172.511 92.7451Z" fill="white"/>
<path d="M139.12 144V132.48H140.56L146.568 141.48V132.48H148.008V144H146.568L140.56 134.992V144H139.12ZM153.925 144.24C153.066 144.24 152.325 144.045 151.701 143.656C151.082 143.267 150.605 142.728 150.269 142.04C149.933 141.352 149.765 140.563 149.765 139.672C149.765 138.765 149.936 137.971 150.277 137.288C150.618 136.605 151.101 136.075 151.725 135.696C152.349 135.312 153.082 135.12 153.925 135.12C154.789 135.12 155.533 135.315 156.157 135.704C156.781 136.088 157.258 136.624 157.589 137.312C157.925 137.995 158.093 138.781 158.093 139.672C158.093 140.573 157.925 141.368 157.589 142.056C157.253 142.739 156.773 143.275 156.149 143.664C155.525 144.048 154.784 144.24 153.925 144.24ZM153.925 142.888C154.821 142.888 155.488 142.589 155.925 141.992C156.362 141.395 156.581 140.621 156.581 139.672C156.581 138.696 156.36 137.92 155.917 137.344C155.474 136.763 154.81 136.472 153.925 136.472C153.322 136.472 152.826 136.608 152.437 136.88C152.048 137.152 151.757 137.528 151.565 138.008C151.373 138.488 151.277 139.043 151.277 139.672C151.277 140.643 151.501 141.421 151.949 142.008C152.397 142.595 153.056 142.888 153.925 142.888ZM167.026 144.24C166.215 144.24 165.532 144.04 164.978 143.64C164.423 143.235 164.002 142.688 163.714 142C163.431 141.307 163.29 140.531 163.29 139.672C163.29 138.803 163.431 138.024 163.714 137.336C164.002 136.648 164.423 136.107 164.978 135.712C165.538 135.317 166.223 135.12 167.034 135.12C167.834 135.12 168.522 135.32 169.098 135.72C169.679 136.115 170.124 136.656 170.434 137.344C170.743 138.032 170.898 138.808 170.898 139.672C170.898 140.536 170.743 141.312 170.434 142C170.124 142.688 169.679 143.235 169.098 143.64C168.522 144.04 167.831 144.24 167.026 144.24ZM163.05 147.84V135.36H164.322V141.72H164.482V147.84H163.05ZM166.85 142.936C167.42 142.936 167.892 142.792 168.266 142.504C168.639 142.216 168.919 141.827 169.106 141.336C169.292 140.84 169.386 140.285 169.386 139.672C169.386 139.064 169.292 138.515 169.106 138.024C168.924 137.533 168.642 137.144 168.258 136.856C167.879 136.568 167.396 136.424 166.81 136.424C166.25 136.424 165.786 136.563 165.418 136.84C165.05 137.112 164.775 137.493 164.594 137.984C164.412 138.469 164.322 139.032 164.322 139.672C164.322 140.301 164.41 140.864 164.586 141.36C164.767 141.851 165.044 142.237 165.418 142.52C165.791 142.797 166.268 142.936 166.85 142.936ZM178.803 144V139.672C178.803 139.261 178.766 138.867 178.691 138.488C178.622 138.109 178.497 137.771 178.315 137.472C178.139 137.168 177.899 136.928 177.595 136.752C177.297 136.576 176.918 136.488 176.459 136.488C176.102 136.488 175.777 136.549 175.483 136.672C175.195 136.789 174.947 136.971 174.739 137.216C174.531 137.461 174.369 137.771 174.251 138.144C174.139 138.512 174.083 138.947 174.083 139.448L173.147 139.16C173.147 138.323 173.297 137.605 173.595 137.008C173.899 136.405 174.323 135.944 174.867 135.624C175.417 135.299 176.062 135.136 176.803 135.136C177.363 135.136 177.841 135.224 178.235 135.4C178.63 135.576 178.958 135.811 179.219 136.104C179.481 136.392 179.686 136.717 179.835 137.08C179.985 137.437 180.089 137.803 180.147 138.176C180.211 138.544 180.243 138.893 180.243 139.224V144H178.803ZM172.643 144V132.48H173.923V138.84H174.083V144H172.643ZM186.003 144.24C185.144 144.24 184.403 144.045 183.779 143.656C183.16 143.267 182.683 142.728 182.347 142.04C182.011 141.352 181.843 140.563 181.843 139.672C181.843 138.765 182.014 137.971 182.355 137.288C182.696 136.605 183.179 136.075 183.803 135.696C184.427 135.312 185.16 135.12 186.003 135.12C186.867 135.12 187.611 135.315 188.235 135.704C188.859 136.088 189.336 136.624 189.667 137.312C190.003 137.995 190.171 138.781 190.171 139.672C190.171 140.573 190.003 141.368 189.667 142.056C189.331 142.739 188.851 143.275 188.227 143.664C187.603 144.048 186.862 144.24 186.003 144.24ZM186.003 142.888C186.899 142.888 187.566 142.589 188.003 141.992C188.44 141.395 188.659 140.621 188.659 139.672C188.659 138.696 188.438 137.92 187.995 137.344C187.552 136.763 186.888 136.472 186.003 136.472C185.4 136.472 184.904 136.608 184.515 136.88C184.126 137.152 183.835 137.528 183.643 138.008C183.451 138.488 183.355 139.043 183.355 139.672C183.355 140.643 183.579 141.421 184.027 142.008C184.475 142.595 185.134 142.888 186.003 142.888ZM196.757 144C196.245 144.101 195.738 144.141 195.237 144.12C194.741 144.104 194.298 144.005 193.909 143.824C193.519 143.637 193.223 143.349 193.021 142.96C192.85 142.619 192.757 142.275 192.741 141.928C192.73 141.576 192.725 141.179 192.725 140.736V132.96H194.149V140.672C194.149 141.024 194.151 141.325 194.157 141.576C194.167 141.827 194.223 142.043 194.325 142.224C194.517 142.565 194.821 142.765 195.237 142.824C195.658 142.883 196.165 142.867 196.757 142.776V144ZM190.973 136.536V135.36H196.757V136.536H190.973ZM201.831 144.24C200.973 144.24 200.231 144.045 199.607 143.656C198.989 143.267 198.511 142.728 198.175 142.04C197.839 141.352 197.671 140.563 197.671 139.672C197.671 138.765 197.842 137.971 198.183 137.288C198.525 136.605 199.007 136.075 199.631 135.696C200.255 135.312 200.989 135.12 201.831 135.12C202.695 135.12 203.439 135.315 204.063 135.704C204.687 136.088 205.165 136.624 205.495 137.312C205.831 137.995 205.999 138.781 205.999 139.672C205.999 140.573 205.831 141.368 205.495 142.056C205.159 142.739 204.679 143.275 204.055 143.664C203.431 144.048 202.69 144.24 201.831 144.24ZM201.831 142.888C202.727 142.888 203.394 142.589 203.831 141.992C204.269 141.395 204.487 140.621 204.487 139.672C204.487 138.696 204.266 137.92 203.823 137.344C203.381 136.763 202.717 136.472 201.831 136.472C201.229 136.472 200.733 136.608 200.343 136.88C199.954 137.152 199.663 137.528 199.471 138.008C199.279 138.488 199.183 139.043 199.183 139.672C199.183 140.643 199.407 141.421 199.855 142.008C200.303 142.595 200.962 142.888 201.831 142.888Z" fill="#9E9D9D"/>
</svg>
