<svg width="18" height="16" viewBox="0 0 18 16" fill="none" xmlns="http://www.w3.org/2000/svg">
<path fill-rule="evenodd" clip-rule="evenodd" d="M7.28826 0.708496H10.7149C12.2466 0.708496 13.4599 0.708496 14.4091 0.835996C15.3858 0.967663 16.1766 1.24433 16.8008 1.86766C17.3658 2.43266 17.6466 3.136 17.7924 3.99266C17.8983 4.61766 17.9366 5.3585 17.9508 6.2285C17.9617 6.29184 17.9628 6.35648 17.9541 6.42016C17.9566 6.6585 17.9583 6.90683 17.9591 7.16516C17.9595 7.33092 17.8941 7.49007 17.7772 7.60759C17.7193 7.66578 17.6506 7.712 17.5748 7.74362C17.4991 7.77523 17.4178 7.79161 17.3358 7.79183C17.17 7.79227 17.0109 7.72685 16.8933 7.60995C16.7758 7.49305 16.7095 7.33426 16.7091 7.1685V6.9585H1.29409C1.29243 7.28183 1.29243 7.6285 1.29243 8.00016C1.29243 9.58933 1.29409 10.7185 1.40909 11.5752C1.52159 12.4127 1.73326 12.896 2.08576 13.2485C2.43826 13.601 2.92159 13.8127 3.75993 13.9252C4.61659 14.0402 5.74493 14.0418 7.33409 14.0418H8.58409C8.74985 14.0418 8.90883 14.1077 9.02604 14.2249C9.14325 14.3421 9.20909 14.5011 9.20909 14.6668C9.20909 14.8326 9.14325 14.9916 9.02604 15.1088C8.90883 15.226 8.74985 15.2918 8.58409 15.2918H7.28826C5.75659 15.2918 4.54326 15.2918 3.59409 15.1643C2.61743 15.0327 1.82659 14.756 1.20243 14.1327C0.579095 13.5085 0.302428 12.7177 0.170761 11.741C0.0432615 10.791 0.0432615 9.5785 0.0432615 8.04683V7.9535C0.0432615 7.40183 0.0432615 6.89183 0.0490948 6.42016C0.0401601 6.35652 0.0410031 6.29188 0.0515948 6.2285C0.0649282 5.47266 0.0957615 4.82016 0.170761 4.25933C0.302428 3.28266 0.579095 2.49183 1.20243 1.86766C1.82659 1.24433 2.61743 0.967663 3.59409 0.835996C4.5441 0.708496 5.75659 0.708496 7.28826 0.708496ZM1.31493 5.7085H16.6883C16.6683 5.11266 16.6299 4.62016 16.5599 4.20183C16.4408 3.50016 16.2374 3.07266 15.9166 2.75183C15.5641 2.39933 15.0808 2.18766 14.2424 2.07516C13.3866 1.96016 12.2574 1.9585 10.6683 1.9585H7.33493C5.74576 1.9585 4.61743 1.96016 3.75993 2.07516C2.92243 2.18766 2.43909 2.39933 2.08659 2.75183C1.73409 3.10433 1.52243 3.58766 1.40993 4.426C1.35993 4.79683 1.33159 5.21933 1.31493 5.7085ZM11.9183 9.04183C12.084 9.04183 12.243 9.10768 12.3602 9.22489C12.4774 9.3421 12.5433 9.50107 12.5433 9.66683V13.1585L13.1433 12.5585C13.2005 12.4971 13.2695 12.4478 13.3461 12.4137C13.4228 12.3795 13.5056 12.3612 13.5895 12.3597C13.6734 12.3582 13.7568 12.3736 13.8346 12.4051C13.9124 12.4365 13.9831 12.4833 14.0425 12.5426C14.1018 12.602 14.1486 12.6727 14.18 12.7505C14.2115 12.8283 14.2269 12.9117 14.2254 12.9956C14.2239 13.0795 14.2056 13.1623 14.1714 13.2389C14.1373 13.3156 14.088 13.3846 14.0266 13.4418L12.3599 15.1085C12.2427 15.2255 12.0839 15.2913 11.9183 15.2913C11.7526 15.2913 11.5938 15.2255 11.4766 15.1085L9.80993 13.4418C9.74852 13.3846 9.69927 13.3156 9.66511 13.2389C9.63095 13.1623 9.61258 13.0795 9.6111 12.9956C9.60962 12.9117 9.62506 12.8283 9.65649 12.7505C9.68793 12.6727 9.73471 12.602 9.79406 12.5426C9.85341 12.4833 9.92411 12.4365 10.0019 12.4051C10.0798 12.3736 10.1631 12.3582 10.247 12.3597C10.3309 12.3612 10.4137 12.3795 10.4904 12.4137C10.567 12.4478 10.636 12.4971 10.6933 12.5585L11.2933 13.1585V9.66683C11.2933 9.50107 11.3591 9.3421 11.4763 9.22489C11.5935 9.10768 11.7525 9.04183 11.9183 9.04183ZM15.2266 9.22516C15.3438 9.10812 15.5026 9.04238 15.6683 9.04238C15.8339 9.04238 15.9927 9.10812 16.1099 9.22516L17.7766 10.8918C17.838 10.949 17.8873 11.018 17.9214 11.0947C17.9556 11.1714 17.9739 11.2541 17.9754 11.3381C17.9769 11.422 17.9615 11.5053 17.93 11.5832C17.8986 11.661 17.8518 11.7317 17.7925 11.791C17.7331 11.8504 17.6624 11.8972 17.5846 11.9286C17.5068 11.96 17.4234 11.9755 17.3395 11.974C17.2556 11.9725 17.1728 11.9541 17.0961 11.92C17.0195 11.8858 16.9505 11.8366 16.8933 11.7752L16.2933 11.1752V14.6668C16.2933 14.8326 16.2274 14.9916 16.1102 15.1088C15.993 15.226 15.834 15.2918 15.6683 15.2918C15.5025 15.2918 15.3435 15.226 15.2263 15.1088C15.1091 14.9916 15.0433 14.8326 15.0433 14.6668V11.1752L14.4433 11.7752C14.386 11.8366 14.317 11.8858 14.2404 11.92C14.1637 11.9541 14.0809 11.9725 13.997 11.974C13.9131 11.9755 13.8298 11.96 13.7519 11.9286C13.6741 11.8972 13.6034 11.8504 13.5441 11.791C13.4847 11.7317 13.4379 11.661 13.4065 11.5832C13.3751 11.5053 13.3596 11.422 13.3611 11.3381C13.3626 11.2541 13.3809 11.1714 13.4151 11.0947C13.4493 11.018 13.4985 10.949 13.5599 10.8918L15.2266 9.22516ZM3.37659 11.3335C3.37659 11.1677 3.44244 11.0088 3.55965 10.8916C3.67686 10.7743 3.83583 10.7085 4.00159 10.7085H7.33493C7.50069 10.7085 7.65966 10.7743 7.77687 10.8916C7.89408 11.0088 7.95993 11.1677 7.95993 11.3335C7.95993 11.4993 7.89408 11.6582 7.77687 11.7754C7.65966 11.8926 7.50069 11.9585 7.33493 11.9585H4.00159C3.83583 11.9585 3.67686 11.8926 3.55965 11.7754C3.44244 11.6582 3.37659 11.4993 3.37659 11.3335Z" fill="#2191FB"/>
</svg>
